<?xml version="1.0" standalone="no"?>
<!DOCTYPE svg PUBLIC "-//W3C//DTD SVG 20010904//EN"
 "http://www.w3.org/TR/2001/REC-SVG-20010904/DTD/svg10.dtd">
<svg version="1.0" xmlns="http://www.w3.org/2000/svg"
 width="1600.000000pt" height="1109.000000pt" viewBox="0 0 1600.000000 1109.000000"
 preserveAspectRatio="xMidYMid meet">

<g transform="translate(0.000000,1109.000000) scale(0.100000,-0.100000)"
fill="#000000" stroke="none">
<path d="M0 5545 l0 -5545 8000 0 8000 0 0 5545 0 5545 -8000 0 -8000 0 0
-5545z m9590 5079 c0 -16 -26 -19 -35 -4 -3 6 -4 14 0 20 8 13 35 1 35 -16z
m41 -150 c12 -14 11 -16 -5 -13 -11 2 -21 10 -24 17 -5 17 13 15 29 -4z m699
-101 c30 -32 42 -46 25 -32 -65 57 -76 64 -113 76 -20 6 -29 12 -19 12 9 1 17
6 17 11 0 18 32 -6 90 -67z m-646 48 c3 -5 -3 -11 -14 -14 -20 -5 -35 5 -23
17 9 9 31 7 37 -3z m342 -22 c115 -8 173 -16 171 -23 -2 -6 -15 -10 -28 -10
-40 3 -181 14 -229 19 -25 2 -81 7 -125 10 -44 4 -84 11 -90 17 -7 7 11 9 59
5 37 -4 147 -12 242 -18z m-526 -10 c0 -11 -11 -39 -24 -62 -12 -23 -49 -89
-81 -147 -32 -58 -67 -116 -77 -129 -38 -50 -18 14 38 119 31 58 72 135 90
173 34 67 54 85 54 46z m315 -175 c51 -4 86 -12 98 -22 27 -24 20 -34 -20 -28
-21 3 -80 7 -131 8 -73 2 -95 -1 -102 -12 -8 -13 -10 -12 -10 2 0 9 5 20 11
24 8 5 6 10 -5 16 -32 18 -17 30 32 24 26 -3 83 -8 127 -12z m278 -19 c99 -6
135 -19 87 -32 -15 -4 -17 -9 -11 -21 11 -20 -4 -52 -24 -52 -8 0 -19 9 -25
19 -14 27 -79 48 -91 30 -8 -11 -11 -11 -20 4 -5 9 -16 17 -24 17 -15 0 -45
27 -45 41 0 5 10 7 23 5 12 -3 70 -8 130 -11z m-99 -107 c-36 -60 -56 -89 -61
-84 -8 7 46 96 58 96 6 0 7 -6 3 -12z m196 -18 c0 -12 -35 -31 -44 -23 -11 11
-6 21 12 26 29 8 32 7 32 -3z m-912 -85 c-6 -14 -13 -23 -15 -21 -5 5 15 46
22 46 3 0 -1 -11 -7 -25z m912 15 c0 -5 -7 -10 -16 -10 -8 0 -12 5 -9 10 3 6
10 10 16 10 5 0 9 -4 9 -10z m81 -325 c3 -2 2 -29 -1 -60 -3 -31 -4 -58 -2
-60 7 -7 6 -84 -1 -91 -3 -3 -2 -16 2 -28 8 -18 12 -100 15 -268 1 -25 4 -44
9 -41 4 2 7 0 7 -5 0 -12 -69 -21 -76 -11 -2 4 -2 126 1 271 3 144 5 271 5
281 0 15 29 24 41 12z m-271 -26 c184 -10 209 -14 194 -28 -5 -5 -126 0 -269
11 -143 10 -270 17 -283 15 -12 -3 -25 0 -29 6 -3 5 -1 7 5 3 6 -3 14 -1 18 5
5 8 34 10 98 5 50 -3 170 -11 266 -17z m-365 -79 c-3 -5 -13 -10 -21 -10 -8 0
-14 5 -14 10 0 6 9 10 21 10 11 0 17 -4 14 -10z m6 -87 l-2 -31 63 -6 c35 -3
104 -8 153 -11 272 -14 321 -18 335 -26 11 -6 7 -10 -17 -15 -26 -5 -31 -11
-30 -31 1 -15 -5 -30 -16 -37 -15 -9 -21 -7 -35 10 -25 32 -72 43 -227 53
-146 9 -158 8 -189 -18 -18 -15 -19 -15 -14 12 6 31 5 31 -21 15 -10 -6 -25
-9 -33 -5 -13 4 -14 13 -6 49 5 24 11 54 12 68 5 44 6 45 18 25 7 -11 11 -34
9 -52z m59 11 c0 -17 -22 -14 -28 4 -2 7 3 12 12 12 9 0 16 -7 16 -16z m85 0
c17 -1 40 -2 53 -3 13 -1 20 -5 17 -11 -4 -6 -10 -8 -14 -5 -5 2 -34 5 -65 6
-31 1 -56 5 -56 9 0 13 13 19 24 13 6 -4 25 -8 41 -9z m359 -35 c-5 -9 -58 2
-66 15 -5 8 -8 7 -8 -1 0 -7 -7 -13 -15 -13 -8 0 -15 6 -15 14 0 8 9 12 27 10
15 -1 34 1 42 6 15 8 44 -17 35 -31z m-234 21 c0 -5 -7 -10 -15 -10 -8 0 -15
5 -15 10 0 6 7 10 15 10 8 0 15 -4 15 -10z m40 0 c0 -5 -7 -10 -15 -10 -8 0
-15 5 -15 10 0 6 7 10 15 10 8 0 15 -4 15 -10z m34 -11 c-3 -5 -10 -7 -15 -3
-5 3 -7 10 -3 15 3 5 10 7 15 3 5 -3 7 -10 3 -15z m46 7 c0 -11 -19 -15 -25
-6 -3 5 1 10 9 10 9 0 16 -2 16 -4z m-387 -124 c-2 -15 2 -20 12 -16 8 4 15 1
15 -5 0 -6 -7 -11 -15 -11 -12 0 -13 -4 -6 -18 5 -9 7 -47 4 -85 -6 -65 -7
-67 -33 -67 -15 0 -29 2 -31 4 -11 11 10 209 23 217 20 13 33 4 31 -19z m507
-67 c-14 -16 -40 -20 -40 -6 0 10 17 19 39 20 11 1 11 -2 1 -14z m4 -70 c-22
-17 -34 -19 -34 -6 0 5 8 12 18 14 32 9 36 7 16 -8z m-514 -105 c0 -5 -11 -9
-25 -8 -14 1 -25 6 -25 10 0 4 11 8 25 8 14 0 25 -4 25 -10z m635 -40 c-3 -5
-15 -10 -26 -10 -10 0 -19 5 -19 10 0 6 12 10 26 10 14 0 23 -4 19 -10z m-619
-47 c-10 -10 -19 5 -10 18 6 11 8 11 12 0 2 -7 1 -15 -2 -18z m607 -20 c-7 -2
-21 -2 -30 0 -10 3 -4 5 12 5 17 0 24 -2 18 -5z m-69 -18 c-4 -8 -7 -15 -9
-15 -2 0 -5 7 -9 15 -3 9 0 15 9 15 9 0 12 -6 9 -15z m-7 -72 c-3 -10 -5 -2
-5 17 0 19 2 27 5 18 2 -10 2 -26 0 -35z m-538 -17 c6 -8 10 -20 9 -27 -3 -15
36 -18 369 -34 l151 -7 4 28 c7 54 20 -601 14 -718 -4 -99 -3 -118 9 -118 12
0 15 22 15 123 0 68 3 260 7 426 l6 302 31 -3 31 -3 7 -325 c4 -179 12 -372
17 -430 11 -118 5 -238 -12 -221 -6 6 -28 11 -49 11 -38 0 -38 0 -38 40 0 53
-18 52 -22 -2 -3 -40 -28 -68 -28 -31 -1 17 -1 17 -11 1 -5 -10 -19 -18 -29
-18 -11 0 -20 -4 -20 -8 0 -5 14 -7 30 -4 19 3 30 0 30 -7 0 -7 4 -9 10 -6 5
3 18 2 27 -4 12 -6 20 -5 28 6 14 19 84 10 86 -10 1 -7 1 -190 -1 -407 -1
-344 0 -398 14 -415 14 -18 15 26 17 475 1 272 2 522 4 555 1 33 3 161 5 285
1 146 5 213 10 190 9 -34 15 -562 15 -1223 0 -298 2 -340 16 -350 9 -7 21 -22
27 -34 15 -27 16 -105 1 -120 -13 -13 -49 -5 -49 11 0 8 -23 11 -75 10 l-74
-2 -6 42 c-3 22 -7 64 -8 91 -2 29 -4 14 -5 -36 -1 -54 -7 -92 -16 -104 -12
-17 -15 -3 -20 110 -10 180 -13 184 -15 17 l-1 -143 -27 3 -28 3 -3 168 c-1
100 -6 167 -12 167 -6 0 -11 35 -11 78 -2 72 -3 69 -14 -53 l-12 -130 -2 190
c-2 236 -5 258 -39 271 -15 6 -81 12 -148 13 l-121 2 -11 -39 c-21 -68 -14
-552 7 -552 4 0 14 26 24 58 12 42 17 100 19 212 l2 155 7 -185 c8 -218 6
-200 22 -200 11 0 15 44 21 210 7 240 19 304 29 160 4 -51 7 -151 7 -222 0
-103 3 -128 14 -128 8 0 17 7 20 16 3 9 6 113 6 231 0 119 3 213 7 209 4 -4
11 -116 15 -249 9 -283 9 -277 24 -277 13 0 34 -51 34 -81 0 -9 6 -19 13 -22
26 -10 -29 -35 -91 -42 -47 -5 -62 -10 -58 -20 6 -16 -19 -39 -34 -30 -5 3
-10 13 -10 21 0 8 -9 14 -20 14 -11 0 -20 -7 -20 -15 0 -9 -9 -15 -24 -15 -13
0 -31 -3 -40 -6 -14 -5 -16 5 -16 75 0 51 -4 81 -11 81 -6 0 -9 -24 -8 -66 2
-49 -2 -70 -14 -85 -19 -21 -76 -26 -78 -6 -5 46 -7 57 -12 71 -10 27 -27 18
-27 -14 0 -16 -5 -30 -11 -30 -6 0 -9 6 -6 13 2 6 1 21 -3 32 -7 18 -9 17 -19
-11 -10 -27 -19 -32 -72 -43 -50 -10 -63 -17 -77 -41 -13 -24 -24 -30 -49 -30
-18 0 -33 5 -33 10 0 12 -35 13 -58 1 -9 -4 -53 -11 -97 -14 -65 -4 -75 -3
-52 6 45 18 33 64 -18 63 -22 -1 -31 -7 -37 -26 l-7 -25 2 26 c1 15 -5 39 -13
53 -12 24 -12 31 1 54 12 22 21 26 44 24 17 -2 37 -10 46 -18 8 -8 23 -14 32
-14 19 0 97 89 97 111 0 9 7 22 15 29 8 7 15 26 15 42 0 17 4 27 10 23 6 -4 8
-10 6 -14 -3 -4 -1 -13 3 -20 5 -7 12 42 16 113 4 69 11 126 16 126 5 0 9 -60
9 -134 0 -74 3 -141 6 -150 9 -23 51 -20 59 4 7 23 20 26 29 8 5 -10 7 -10 12
0 8 17 24 5 24 -19 0 -16 4 -19 23 -13 12 3 24 8 26 10 3 2 5 249 5 549 l1
545 28 0 c25 0 27 -3 27 -45 0 -57 -20 -60 -21 -2 l-1 42 -9 -40 c-11 -53 -11
-1102 -1 -1109 12 -7 22 321 22 706 0 215 3 318 10 318 8 0 9 -158 4 -513 -5
-358 -4 -516 3 -520 28 -18 33 64 33 550 l0 494 58 -2 57 -3 3 237 c1 147 6
237 12 237 6 0 10 -94 10 -254 l0 -253 92 -7 c146 -10 240 -8 232 5 -5 8 1 10
19 5 29 -7 48 11 26 25 -10 6 -7 9 12 9 27 0 39 16 39 51 0 21 -20 25 -38 7
-9 -9 -12 -5 -12 20 0 18 5 32 10 32 6 0 10 -7 10 -16 0 -11 5 -14 16 -10 9 3
22 6 30 6 16 0 20 45 4 55 -6 3 -10 -4 -10 -16 0 -12 -3 -19 -7 -15 -5 4 -8
83 -8 174 0 158 -1 167 -19 167 -27 0 -31 21 -6 28 13 3 20 13 20 30 0 20 -4
23 -25 19 -30 -5 -34 13 -5 21 11 3 20 11 20 17 0 7 -8 10 -20 7 -12 -3 -25 2
-33 12 -30 42 -73 50 -270 55 -82 1 -92 -8 -103 -93 -3 -31 -11 -61 -16 -68
-6 -7 -8 -100 -6 -225 1 -117 0 -218 -4 -224 -4 -6 -24 -8 -50 -5 l-43 6 3
480 c2 264 6 483 9 487 7 13 50 9 62 -6z m2730 -40 c9 -10 8 -16 -4 -26 -19
-16 -41 1 -32 24 8 20 21 20 36 2z m-2870 -477 c1 -258 -5 -353 -20 -343 -5 3
-7 85 -5 182 2 97 5 272 6 387 3 178 4 196 11 120 4 -49 7 -205 8 -346z m29
-14 c0 -104 -4 -221 -8 -260 -4 -42 -7 55 -7 240 0 183 3 290 7 260 5 -27 8
-135 8 -240z m182 25 c0 -5 -5 -10 -11 -10 -5 0 -7 5 -4 10 3 6 8 10 11 10 2
0 4 -4 4 -10z m-1540 -165 c0 -15 -27 -45 -40 -45 -17 0 -22 22 -10 45 13 24
50 24 50 0z m7762 -382 c22 -20 23 -31 1 -55 -24 -27 -67 -23 -81 8 -25 52 35
88 80 47z m-6512 -23 c0 -5 -5 -10 -11 -10 -5 0 -7 5 -4 10 3 6 8 10 11 10 2
0 4 -4 4 -10z m5624 -146 c21 -20 20 -43 -1 -66 -32 -35 -93 -10 -93 38 0 40
63 59 94 28z m726 -49 c15 -18 -2 -45 -30 -45 -23 0 -34 28 -19 46 15 18 33
18 49 -1z m-1333 -71 c8 -20 -21 -49 -41 -41 -9 4 -16 18 -16 32 0 20 5 25 25
25 14 0 28 -7 32 -16z m723 -19 c7 -8 21 -15 31 -15 33 0 21 -15 -27 -33 -33
-12 -51 -14 -65 -7 -18 10 -26 50 -12 63 12 13 60 7 73 -8z m-10633 -63 c1
-13 -7 -18 -28 -20 -28 -2 -39 14 -22 31 14 15 49 7 50 -11z m8937 -18 c23
-22 20 -41 -8 -59 -44 -29 -94 19 -60 56 21 23 47 24 68 3z m676 -59 c0 -8 -7
-15 -15 -15 -8 0 -15 7 -15 15 0 8 7 15 15 15 8 0 15 -7 15 -15z m-3609 -352
c0 -149 -5 -187 -24 -180 -27 8 -26 403 0 507 10 36 24 -158 24 -327z m-5893
330 c-21 -2 -55 -2 -75 0 -21 2 -4 4 37 4 41 0 58 -2 38 -4z m145 -10 c-7 -2
-19 -2 -25 0 -7 3 -2 5 12 5 14 0 19 -2 13 -5z m7898 -12 c21 -16 22 -22 11
-45 -9 -20 -19 -26 -41 -26 -62 0 -61 82 0 89 4 1 17 -7 30 -18z m-4458 -5 c6
-15 -1 -26 -15 -26 -4 0 -8 9 -8 20 0 23 15 27 23 6z m5142 -36 c16 -32 20
-90 6 -90 -5 0 -11 9 -14 19 -3 14 -11 18 -25 14 -25 -6 -62 13 -62 33 0 58
68 76 95 24z m-8900 -42 c-8 -47 -25 -75 -25 -41 0 37 12 83 22 83 6 0 7 -17
3 -42z m283 16 c29 -6 30 -7 20 -43 -5 -20 -14 -40 -19 -45 -5 -6 -9 -18 -9
-28 0 -10 -5 -18 -10 -18 -10 0 -6 32 11 77 12 33 -12 42 -113 44 -125 2 -134
19 -12 19 56 0 115 -3 132 -6z m7250 -20 c26 -18 28 -36 5 -70 -13 -21 -14
-30 -5 -45 7 -10 12 -32 12 -49 0 -29 1 -30 53 -31 47 -1 49 -2 22 -10 -48
-15 -175 -9 -175 7 0 8 -6 23 -12 34 -10 16 -9 25 4 48 12 20 15 40 11 65 -10
61 34 87 85 51z m1572 -24 c0 -5 -12 -10 -27 -10 -22 0 -25 2 -13 10 20 13 40
13 40 0z m-938 -17 c19 -17 26 -93 8 -93 -5 0 -10 9 -10 19 0 16 -8 20 -37 23
-39 3 -52 21 -39 54 7 19 55 18 78 -3z m-1253 -42 c9 -6 15 -26 15 -48 1 -21
9 -49 19 -63 9 -13 17 -35 17 -47 0 -16 6 -23 20 -23 39 0 20 -18 -26 -25 -34
-5 -49 -3 -55 7 -7 10 -9 10 -9 1 0 -22 -16 -14 -30 15 -8 15 -13 41 -11 58 1
18 -4 36 -13 44 -19 15 -21 61 -4 78 14 14 57 16 77 3z m1389 -38 c-10 -2 -26
-2 -35 0 -10 3 -2 5 17 5 19 0 27 -2 18 -5z m-8038 -13 c0 -5 -5 -10 -11 -10
-5 0 -7 5 -4 10 3 6 8 10 11 10 2 0 4 -4 4 -10z m7060 -56 l0 -56 29 7 c16 3
32 2 35 -4 7 -10 -52 -27 -61 -17 -4 3 -12 1 -20 -5 -11 -9 -13 1 -13 58 0 38
3 73 6 76 15 15 24 -8 24 -59z m-958 19 c9 -8 14 -21 11 -29 -3 -7 10 -27 28
-43 23 -22 32 -38 31 -60 0 -18 5 -31 11 -31 7 0 3 -7 -7 -15 -13 -10 -40 -15
-75 -14 -31 1 -48 3 -38 6 21 5 22 22 2 29 -8 4 -15 13 -15 21 0 8 -9 28 -21
45 -30 42 -30 89 0 104 26 13 46 9 73 -13z m348 -99 c0 -34 -4 -53 -10 -49 -5
3 -10 28 -10 56 0 27 5 49 10 49 6 0 10 -25 10 -56z m-6643 40 c-3 -3 -12 -4
-19 -1 -8 3 -5 6 6 6 11 1 17 -2 13 -5z m86 -1 c-7 -2 -21 -2 -30 0 -10 3 -4
5 12 5 17 0 24 -2 18 -5z m6019 -95 c3 -49 5 -53 31 -56 27 -3 38 -21 15 -23
-68 -8 -79 -7 -74 8 3 8 6 39 6 69 0 69 18 71 22 2z m-3488 26 c11 -29 -22
-74 -55 -74 -40 0 -28 63 14 80 31 12 34 12 41 -6z m509 -45 c-4 -15 -3 -20 5
-15 8 5 12 0 12 -12 0 -11 -9 -22 -20 -25 -12 -3 -17 -1 -14 5 3 5 -3 12 -15
15 -23 6 -29 41 -9 61 18 18 47 -3 41 -29z m-2915 9 c6 -6 12 -22 11 -37 0
-26 0 -26 -11 -4 -14 29 -24 32 -146 34 -56 2 -99 6 -95 10 19 18 218 15 241
-3z m6492 13 c0 -5 -11 -11 -25 -13 -24 -5 -32 2 -18 15 9 10 43 8 43 -2z
m-200 -41 c0 -5 -5 -10 -11 -10 -5 0 -7 5 -4 10 3 6 8 10 11 10 2 0 4 -4 4
-10z m-6530 -50 c0 -27 -4 -50 -10 -50 -11 0 -14 83 -3 93 12 12 13 8 13 -43z
m5550 -11 c0 -16 -4 -29 -10 -29 -5 0 -10 16 -10 36 0 21 4 33 10 29 6 -3 10
-19 10 -36z m524 26 c3 -9 -1 -18 -10 -22 -19 -7 -28 2 -21 22 8 19 23 19 31
0z m-5814 -15 c0 -5 -2 -10 -4 -10 -3 0 -8 5 -11 10 -3 6 -1 10 4 10 6 0 11
-4 11 -10z m84 -36 c9 -23 8 -24 -18 -24 -32 0 -42 16 -19 29 25 14 30 13 37
-5z m340 4 c19 -18 9 -47 -15 -41 -12 3 -19 14 -19 29 0 26 14 31 34 12z
m3536 -78 c0 -55 -74 -78 -92 -30 -14 38 -6 64 22 70 38 10 70 -8 70 -40z
m-325 -39 c3 -15 1 -40 -5 -55 -8 -22 -14 -26 -31 -21 -14 5 -25 2 -30 -6 -7
-11 -9 -9 -9 7 0 11 -5 25 -11 31 -6 6 -8 24 -4 41 5 24 13 32 33 34 40 5 50
-1 57 -31z m505 -17 c0 -41 2 -45 20 -39 14 5 20 2 20 -9 0 -21 -24 -20 -44 0
-18 17 -22 94 -6 94 6 0 10 -21 10 -46z m-4395 6 c3 -5 42 -10 86 -10 43 0 79
-4 79 -9 0 -5 -26 -7 -58 -6 -32 2 -64 0 -72 -5 -11 -7 -8 -10 13 -10 20 0 27
-5 27 -20 0 -11 -6 -20 -12 -20 -9 0 -8 -4 2 -10 12 -8 16 -3 20 23 l6 32 5
-37 5 -38 -50 0 c-100 0 -34 -12 85 -15 76 -2 117 0 108 6 -8 5 -33 9 -57 9
-27 0 -41 4 -37 10 4 6 11 8 16 5 5 -4 10 9 11 27 l1 33 4 -32 c5 -37 22 -45
24 -10 l2 22 4 -23 c6 -31 23 -18 23 18 0 25 -4 29 -32 33 -25 3 -21 4 15 5
30 1 46 -2 42 -8 -3 -5 -1 -10 4 -10 6 0 11 7 11 16 0 9 6 14 13 11 6 -2 11
-9 10 -15 -2 -7 4 -43 12 -82 10 -47 15 -132 16 -248 0 -208 11 -338 29 -355
10 -9 14 -9 17 1 7 18 30 15 38 -5 6 -16 9 -15 28 8 27 32 51 41 66 26 8 -8
11 -7 11 6 0 26 20 20 21 -5 1 -13 7 2 14 32 9 38 13 46 14 27 2 -44 21 -21
21 25 0 50 7 47 12 -5 5 -52 22 -51 29 3 l6 45 3 -60 c2 -58 2 -59 13 -27 6
20 15 31 23 28 7 -3 14 -1 16 5 2 5 15 6 34 0 30 -9 32 -7 38 22 4 19 10 27
14 21 4 -7 15 -8 27 -4 11 4 28 2 39 -4 14 -8 20 -8 23 2 3 6 11 12 19 12 8 0
14 5 14 11 0 6 9 8 20 4 11 -4 20 -2 20 4 0 6 5 11 10 11 6 0 10 -7 10 -15 0
-8 5 -15 10 -15 6 0 10 4 10 9 0 5 9 7 20 4 14 -4 20 0 20 11 0 11 9 16 33 16
19 0 37 -3 41 -7 4 -5 11 -9 14 -9 44 -9 53 -18 50 -48 -2 -24 -8 -32 -26 -34
-13 -2 -30 2 -38 8 -11 10 -14 9 -14 -4 0 -9 -7 -16 -15 -16 -8 0 -15 7 -15
15 0 8 -4 15 -10 15 -5 0 -10 -11 -10 -24 0 -13 -9 -34 -19 -47 -18 -23 -20
-23 -38 -6 -11 9 -25 17 -31 17 -7 0 -12 5 -12 10 0 6 -4 10 -10 10 -5 0 -10
-6 -10 -14 0 -19 -6 -22 -62 -30 -40 -6 -48 -5 -48 8 0 9 -4 16 -8 16 -4 0 -6
-16 -4 -36 6 -50 -14 -61 -47 -26 -16 17 -26 22 -29 14 -5 -17 -22 -15 -22 4
0 8 -5 12 -11 8 -6 -3 -9 -19 -5 -34 7 -38 -2 -43 -32 -20 -20 17 -28 18 -40
8 -12 -10 -16 -10 -19 0 -7 19 -23 14 -23 -7 0 -24 -29 -36 -37 -15 -5 12 -7
13 -14 3 -6 -11 -15 -9 -38 9 l-31 22 12 -25 c9 -20 9 -28 -2 -38 -10 -9 -13
-9 -17 0 -3 9 -10 10 -23 3 -13 -7 -21 -7 -25 0 -11 18 -25 10 -25 -15 0 -14
-6 -26 -12 -27 -24 -2 -33 -5 -62 -17 -16 -6 -45 -13 -66 -14 -21 -1 -44 -8
-53 -15 -11 -9 -22 -10 -41 -2 -35 13 -34 14 -38 -12 -2 -13 -10 -23 -18 -23
-27 0 -118 -36 -130 -51 -7 -7 -29 -14 -49 -14 -20 0 -41 -4 -47 -10 -6 -6
-21 -6 -42 -1 -28 8 -32 7 -30 -7 2 -10 -4 -17 -14 -17 -9 0 -20 -3 -23 -7 -4
-4 -13 -4 -21 -1 -8 3 -14 0 -14 -6 0 -6 -11 -11 -24 -11 -14 0 -31 -6 -38
-13 -17 -16 -58 -19 -58 -4 0 8 -3 7 -9 -2 -6 -9 -21 -12 -45 -9 -28 3 -35 1
-31 -9 2 -8 -2 -16 -10 -19 -8 -4 -15 -15 -15 -25 0 -10 -4 -19 -9 -19 -15 0
-22 18 -11 25 8 5 7 12 -2 22 -10 13 -7 20 22 44 19 16 43 29 52 29 17 0 106
44 122 60 5 5 15 6 22 3 8 -3 14 0 14 7 0 6 3 9 8 7 4 -3 25 3 46 14 22 10 50
19 63 19 15 0 23 6 23 17 0 9 3 14 6 10 8 -7 44 24 44 39 0 7 7 14 15 18 8 3
15 16 15 30 0 49 19 36 22 -15 2 -33 8 -54 16 -57 11 -3 12 7 7 52 -5 39 -4
56 4 56 16 0 15 197 -1 202 -16 6 -24 291 -12 407 l7 76 11 -55 11 -55 2 55
c6 119 18 162 38 130z m4021 -12 c4 -7 9 -6 14 2 13 21 30 1 30 -35 0 -21 6
-37 16 -43 9 -5 14 -14 10 -21 -8 -13 -56 -15 -56 -3 0 8 -59 3 -160 -13 -36
-6 -43 -5 -33 5 6 7 23 13 37 13 14 0 26 3 26 8 0 5 7 6 15 3 8 -4 15 -1 15 5
0 6 -4 11 -10 11 -5 0 -10 7 -10 15 0 8 7 15 15 15 8 0 15 5 15 11 0 27 63 49
76 27z m-421 -18 c9 -28 -3 -77 -21 -84 -17 -6 -64 13 -64 26 0 5 -5 6 -11 3
-6 -4 -9 -24 -8 -45 2 -21 -4 -47 -12 -60 -14 -22 -17 -22 -67 -10 -29 6 -52
15 -52 20 0 45 15 70 47 81 26 8 38 8 46 0 16 -16 30 -14 24 3 -3 8 -1 31 4
50 10 35 11 36 59 36 40 0 50 -4 55 -20z m-343 -22 c3 -8 9 -8 23 -1 15 9 23
7 37 -9 20 -23 21 -31 12 -76 -5 -22 -10 -29 -22 -25 -10 4 -13 2 -8 -5 4 -7
16 -12 27 -12 26 0 24 -26 -2 -33 -28 -7 -56 3 -38 13 9 6 8 13 -6 26 -23 23
-52 28 -52 9 0 -8 6 -15 14 -15 7 0 13 -4 13 -10 0 -5 -4 -10 -8 -10 -5 0 -15
-11 -22 -26 -12 -21 -20 -25 -49 -22 -22 2 -40 10 -47 22 -13 22 -6 66 11 66
7 0 16 7 19 15 3 9 14 15 23 13 12 -2 21 7 29 32 6 19 16 36 23 38 6 2 9 8 5
13 -3 5 -1 9 5 9 5 0 11 -5 13 -12z m497 -47 c1 -13 9 -30 18 -37 28 -20 10
-26 -55 -18 -59 6 -60 7 -64 39 -2 19 0 31 4 29 5 -3 11 2 14 11 4 9 13 13 24
10 9 -3 23 2 31 11 12 15 14 14 20 -3 4 -10 8 -29 8 -42z m1490 7 c1 -10 -3
-18 -9 -18 -5 0 -10 17 -9 38 0 30 2 33 9 17 5 -11 9 -28 9 -37z m3944 35 c-7
-2 -21 -2 -30 0 -10 3 -4 5 12 5 17 0 24 -2 18 -5z m-4973 -13 c-20 -13 -53
-13 -45 0 3 6 18 10 33 10 21 0 24 -2 12 -10z m1100 -4 c0 -22 -20 -30 -20 -9
-1 17 -2 17 -15 -1 -15 -19 -15 -19 -15 2 0 17 6 22 25 22 15 0 25 -6 25 -14z
m190 -28 c0 -10 -4 -18 -10 -18 -5 0 -10 15 -10 33 0 24 3 28 10 17 5 -8 10
-23 10 -32z m3627 36 c-3 -3 -12 -4 -19 -1 -8 3 -5 6 6 6 11 1 17 -2 13 -5z
m-3987 -8 c0 -3 -4 -8 -10 -11 -5 -3 -10 -1 -10 4 0 6 5 11 10 11 6 0 10 -2
10 -4z m210 -27 c0 -10 -4 -19 -10 -19 -5 0 -10 12 -10 26 0 14 4 23 10 19 6
-3 10 -15 10 -26z m-2344 2 c5 1 21 1 35 0 26 -1 26 -2 27 -76 l1 -75 -29 0
c-15 0 -31 6 -33 13 -4 7 -6 6 -6 -4 -1 -20 -42 -49 -69 -49 -19 0 -62 34 -62
49 0 14 42 90 49 89 19 -2 28 6 45 37 11 21 22 31 26 25 4 -6 11 -10 16 -9z
m2604 -1 c0 -11 -5 -20 -11 -20 -5 0 -7 -4 -4 -10 3 -5 1 -10 -4 -10 -12 0
-14 20 -5 44 9 23 24 20 24 -4z m160 10 c0 -5 -4 -10 -10 -10 -5 0 -10 5 -10
10 0 6 5 10 10 10 6 0 10 -4 10 -10z m-550 -66 c0 -2 -7 -4 -15 -4 -11 0 -15
11 -15 38 l1 37 14 -34 c8 -18 15 -35 15 -37z m-2401 6 c9 0 12 -17 9 -64 -2
-48 0 -62 10 -59 6 3 12 13 12 22 1 13 2 13 11 -3 14 -23 -3 -36 -50 -36 -18
0 -49 -9 -67 -21 -32 -20 -35 -20 -63 -3 -27 16 -30 16 -52 0 -13 -9 -33 -16
-45 -16 -12 0 -35 -7 -50 -15 -56 -29 -90 -14 -77 34 3 12 1 21 -6 21 -7 0 -2
16 11 39 12 22 26 37 30 35 5 -3 8 4 8 15 0 23 16 36 25 21 4 -6 12 -6 24 2
10 6 26 8 35 5 14 -5 16 -16 11 -59 -4 -29 -8 -55 -11 -59 -2 -4 0 -11 6 -14
17 -10 40 14 41 44 l2 26 4 -27 c6 -40 33 -36 33 5 0 20 8 39 20 50 11 9 20
24 20 32 0 9 4 14 9 11 5 -3 12 1 15 10 4 9 13 14 21 10 10 -3 15 1 15 11 0
15 2 15 18 0 10 -10 24 -17 31 -17z m816 -9 c-3 -6 -25 -11 -48 -10 l-42 1 45
12 c49 14 56 13 45 -3z m1243 -13 c6 -6 12 -18 13 -27 0 -10 2 -12 6 -3 7 17
23 5 23 -18 0 -12 -10 -21 -30 -25 -16 -4 -32 -11 -35 -16 -9 -13 -57 -11 -76
4 -49 38 -7 115 55 101 17 -3 37 -11 44 -16z m427 -37 c3 -5 -2 -11 -10 -13
-12 -2 -3 -16 31 -52 l46 -49 -25 -56 c-14 -31 -30 -75 -36 -98 -6 -23 -27
-61 -47 -84 -44 -52 -59 -80 -48 -88 14 -9 11 -65 -3 -74 -7 -4 -13 -16 -13
-26 0 -14 -6 -17 -25 -13 -19 3 -25 11 -25 31 0 20 -2 23 -10 11 -5 -8 -10
-66 -10 -127 0 -63 -4 -113 -9 -113 -5 0 -11 -10 -13 -22 -2 -16 -9 -22 -20
-20 -10 2 -18 -2 -18 -8 0 -5 5 -10 11 -10 5 0 7 -5 3 -11 -13 -22 -22 14 -22
89 0 42 -3 128 -7 193 -9 141 -1 199 25 199 24 0 36 20 19 31 -11 7 -10 11 6
23 18 14 18 15 3 16 -25 0 -22 17 5 26 21 7 21 7 2 14 -17 6 -19 15 -16 97 2
60 -1 93 -9 98 -19 12 21 35 42 24 14 -8 16 -14 8 -29 -6 -11 -7 -31 -4 -46 6
-22 8 -24 16 -10 5 9 13 14 18 11 12 -7 0 -48 -17 -58 -9 -6 -12 -18 -9 -35 3
-15 2 -55 -2 -89 -6 -45 -5 -66 5 -79 12 -16 16 -14 53 26 22 24 43 54 46 67
4 13 10 23 15 23 5 0 9 7 9 15 0 7 6 18 14 22 31 18 22 48 -35 118 -31 39 -55
73 -52 78 6 10 101 9 108 -2z m122 -16 c10 -22 8 -27 -10 -40 -12 -9 -31 -12
-46 -8 -42 9 -48 22 -14 29 19 4 33 14 36 25 7 26 20 24 34 -6z m107 19 c26
-10 18 -27 -9 -22 -14 3 -25 1 -25 -3 0 -5 -11 -9 -25 -9 -29 0 -32 8 -7 26
19 15 42 17 66 8z m-3214 -14 c0 -7 6 -7 19 0 40 21 51 3 49 -72 -1 -53 -5
-71 -17 -76 -9 -3 -19 -9 -22 -14 -6 -10 -82 -14 -97 -5 -5 4 -13 1 -15 -5 -3
-8 -6 -6 -6 5 -1 9 3 17 8 17 10 0 2 51 -12 68 -8 11 -5 12 19 6 16 -4 26 -3
22 1 -4 5 -3 14 4 22 6 7 8 16 4 20 -7 7 22 43 36 43 4 0 8 -5 8 -10z m3310
-11 c0 -5 -11 -9 -25 -9 -28 0 -34 16 -7 23 20 4 32 -1 32 -14z m50 -5 c0 -16
-16 -19 -25 -4 -8 13 4 32 16 25 5 -4 9 -13 9 -21z m200 15 c0 -4 -8 -10 -17
-13 -10 -3 66 -4 170 -3 103 1 187 -1 187 -4 0 -8 -223 -17 -390 -15 -110 1
-125 3 -128 19 -2 9 2 17 8 17 6 0 8 -4 5 -10 -4 -6 13 -10 44 -10 28 0 53 0
56 0 3 0 4 3 3 8 -2 4 -22 6 -45 6 -24 -1 -43 3 -43 8 0 5 34 8 75 7 41 -1 75
-5 75 -10z m-3701 -43 c7 -8 14 -40 15 -70 3 -50 1 -59 -20 -75 -19 -15 -36
-18 -82 -15 -49 4 -64 1 -86 -17 -19 -15 -35 -20 -56 -15 -16 3 -32 1 -35 -4
-4 -7 -13 -6 -26 0 -21 12 -37 6 -57 -22 -15 -21 -43 -23 -60 -6 -10 10 -15
10 -21 -1 -7 -10 -13 -11 -31 -1 -20 11 -25 9 -46 -16 -20 -26 -25 -28 -44
-16 -19 11 -24 11 -34 -4 -11 -14 -16 -14 -33 -3 -36 22 -54 -3 -51 -70 l3
-56 -30 0 -30 0 3 58 c3 46 0 57 -12 57 -9 0 -16 -4 -16 -10 0 -5 -10 -10 -22
-9 -13 0 -40 -2 -61 -5 -24 -3 -37 -1 -35 6 2 5 22 12 43 14 50 4 86 12 94 20
3 3 -6 16 -21 28 -31 24 -37 53 -13 62 8 4 15 12 15 20 0 21 79 19 87 -2 3 -8
12 -13 19 -10 8 3 14 0 15 -7 0 -7 5 3 11 22 7 26 12 31 19 20 7 -12 9 -12 10
1 1 8 1 19 0 24 -2 8 21 5 82 -10 32 -8 60 11 52 36 -4 12 1 19 14 23 15 3 18
1 14 -12 -4 -11 -1 -10 10 4 13 17 27 20 85 20 46 0 75 5 87 15 15 13 19 12
29 -2 7 -9 24 -20 39 -23 17 -5 27 -14 27 -26 0 -23 18 -25 26 -4 4 8 11 15
18 15 6 0 12 12 13 26 1 26 20 47 34 38 4 -2 10 0 14 6 9 14 31 12 44 -4z
m1142 -76 c-6 -71 -7 -75 -31 -78 -20 -2 -22 -1 -10 7 11 8 11 11 2 11 -10 0
-12 16 -10 62 3 57 5 63 28 68 14 4 25 6 26 6 1 -1 -2 -35 -5 -76z m-2582 29
c9 -26 8 -29 -10 -29 -11 0 -22 -7 -25 -15 -11 -27 -20 -8 -16 32 5 50 35 57
51 12z m384 13 c18 -16 23 -51 7 -53 -5 -1 -20 -2 -32 -2 -13 -1 -27 -6 -31
-11 -5 -6 -6 -2 -3 9 3 11 1 27 -4 35 -20 32 30 50 63 22z m1094 -69 c-3 -10
-5 -2 -5 17 0 19 2 27 5 18 2 -10 2 -26 0 -35z m-2541 -30 c19 -26 17 -30 -16
-35 -31 -5 -36 4 -24 36 8 21 24 20 40 -1z m1700 -58 c15 -11 16 -17 6 -23 -7
-5 -10 -16 -7 -25 8 -20 -34 -28 -120 -24 -78 4 -96 13 -86 39 8 22 56 34 66
17 4 -5 13 -9 21 -9 8 0 12 4 9 10 -3 5 0 7 8 4 8 -3 20 2 27 11 16 19 50 19
76 0z m2559 -35 c-3 -5 -10 -10 -16 -10 -5 0 -9 5 -9 10 0 6 7 10 16 10 8 0
12 -4 9 -10z m-2502 -27 c-7 -2 -21 -2 -30 0 -10 3 -4 5 12 5 17 0 24 -2 18
-5z m-150 -35 c-2 -5 -3 -15 -3 -24 0 -9 -7 -14 -17 -12 -10 1 -24 -1 -32 -6
-8 -5 -16 -4 -21 4 -5 9 -9 9 -14 1 -13 -20 -26 -11 -26 18 0 30 0 30 58 28
31 -1 56 -5 55 -9z m-756 -65 c-3 -10 -5 -2 -5 17 0 19 2 27 5 18 2 -10 2 -26
0 -35z m4288 -33 c-5 -8 -11 -8 -17 -2 -6 6 -7 16 -3 22 5 8 11 8 17 2 6 -6 7
-16 3 -22z m-2485 -4 c0 -2 -7 -6 -15 -10 -8 -3 -15 -1 -15 4 0 6 7 10 15 10
8 0 15 -2 15 -4z m-67 -13 c-7 -2 -21 -2 -30 0 -10 3 -4 5 12 5 17 0 24 -2 18
-5z m2371 -14 c-3 -5 -10 -7 -15 -3 -5 3 -7 10 -3 15 3 5 10 7 15 3 5 -3 7
-10 3 -15z m-3134 -13 c0 -8 -4 -17 -8 -20 -13 -8 -35 11 -28 23 10 16 36 14
36 -3z m637 8 c-3 -3 -12 -4 -19 -1 -8 3 -5 6 6 6 11 1 17 -2 13 -5z m-182
-20 c13 -5 14 -8 3 -15 -19 -13 -28 -11 -28 6 0 17 2 18 25 9z m2485 -9 c0 -8
-4 -15 -10 -15 -5 0 -10 7 -10 15 0 8 5 15 10 15 6 0 10 -7 10 -15z m370 -5
c0 -11 -4 -20 -10 -20 -5 0 -10 9 -10 20 0 11 5 20 10 20 6 0 10 -9 10 -20z
m-576 -19 c8 -13 -4 -42 -15 -35 -12 7 -12 44 0 44 6 0 12 -4 15 -9z m378 -33
c-6 -6 -15 -9 -18 -5 -4 3 -4 14 0 23 5 13 9 15 18 6 9 -9 9 -15 0 -24z m-597
-18 c0 -13 -6 -25 -12 -27 -9 -3 -13 6 -13 27 0 21 4 30 13 28 6 -3 12 -15 12
-28z m-1865 -42 c0 -11 -7 -18 -20 -18 -15 0 -20 7 -20 28 0 16 3 32 7 36 10
9 33 -23 33 -46z m2260 26 c0 -8 -7 -14 -15 -14 -15 0 -21 21 -9 33 10 9 24
-2 24 -19z m-630 -23 c0 -23 -16 -36 -25 -21 -9 14 1 40 15 40 5 0 10 -9 10
-19z m402 -3 c9 -23 -2 -40 -17 -28 -8 6 -11 18 -8 26 6 17 19 18 25 2z m-650
-42 c4 -23 -20 -34 -28 -12 -8 21 4 52 15 40 5 -5 11 -18 13 -28z m413 -11 c0
-10 -6 -20 -12 -22 -8 -3 -13 5 -13 22 0 17 5 25 13 23 6 -3 12 -13 12 -23z
m-685 -35 c0 -21 -15 -27 -25 -10 -7 12 2 30 16 30 5 0 9 -9 9 -20z m430 -11
c0 -10 -7 -19 -15 -19 -15 0 -21 31 -9 43 11 10 24 -3 24 -24z m-715 -30 c8
-25 1 -34 -20 -26 -19 8 -20 47 -1 47 8 0 18 -9 21 -21z m443 -16 c-5 -25 -28
-28 -28 -4 0 12 6 21 16 21 9 0 14 -7 12 -17z m-298 -54 c0 -24 -23 -21 -28 4
-2 10 3 17 12 17 10 0 16 -9 16 -21z m-796 -26 c9 -22 -12 -43 -23 -24 -10 15
-4 41 9 41 4 0 11 -8 14 -17z m-2413 -16 c-13 -13 -26 -3 -16 12 3 6 11 8 17
5 6 -4 6 -10 -1 -17z m304 -20 c0 -21 -3 -41 -7 -43 -4 -3 -8 2 -8 11 0 9 -4
13 -10 10 -12 -7 -25 39 -15 55 4 6 14 10 23 8 12 -2 17 -14 17 -41z m-503 -7
c-2 -22 -6 -40 -8 -40 -2 0 -4 18 -4 40 0 22 3 40 8 40 4 0 6 -18 4 -40z
m3086 16 c3 -12 -1 -17 -10 -14 -7 3 -15 13 -16 22 -3 12 1 17 10 14 7 -3 15
-13 16 -22z m-540 -29 c2 -19 -1 -27 -13 -27 -19 0 -30 24 -21 46 9 23 31 11
34 -19z m-2900 11 c7 -7 12 -21 12 -33 0 -29 -19 -45 -52 -45 -24 0 -28 4 -28
29 0 20 8 35 22 45 27 19 31 19 46 4z m2755 -28 c18 -22 23 -50 8 -50 -6 0
-13 5 -16 10 -11 18 -25 10 -25 -14 0 -29 -18 -44 -26 -22 -6 15 24 96 36 96
3 0 13 -9 23 -20z m-2923 -5 c7 -8 10 -25 6 -40 -8 -31 -50 -35 -66 -5 -23 42
30 81 60 45z m3260 0 c0 -8 -4 -15 -10 -15 -5 0 -10 7 -10 15 0 8 5 15 10 15
6 0 10 -7 10 -15z m-3433 -31 c8 -20 -6 -32 -45 -40 -34 -7 -50 10 -38 41 8
21 75 20 83 -1z m-179 -17 c4 -19 -20 -32 -43 -23 -13 5 -14 10 -5 26 13 25
43 23 48 -3z m2722 8 c0 -8 -7 -15 -15 -15 -8 0 -15 7 -15 15 0 8 7 15 15 15
8 0 15 -7 15 -15z m-2794 -47 c0 -34 -3 -48 -13 -48 -7 0 -13 7 -13 15 0 8 -9
15 -20 15 -22 0 -26 20 -9 51 6 13 18 19 32 17 19 -3 22 -10 23 -50z m2954 32
c0 -11 -6 -20 -14 -20 -18 0 -29 16 -21 30 11 18 35 11 35 -10z m290 10 c0 -5
-2 -10 -4 -10 -3 0 -8 5 -11 10 -3 6 -1 10 4 10 6 0 11 -4 11 -10z m-3510 -15
c7 -8 10 -25 6 -40 -11 -43 -86 -30 -86 15 0 37 55 55 80 25z m98 -2 c5 -17
-26 -29 -40 -15 -6 6 -7 15 -3 22 9 14 37 9 43 -7z m-766 -32 l17 -35 -30 -18
c-70 -43 -128 6 -83 70 25 36 74 27 96 -17z m156 27 c10 -10 17 -10 32 0 29
18 57 15 73 -8 13 -18 16 -19 27 -5 7 8 20 15 29 15 19 0 71 -50 71 -67 0 -17
-34 -25 -73 -18 -21 4 -37 3 -41 -4 -4 -6 -37 -11 -76 -11 -67 0 -70 1 -85 30
-18 35 -19 52 -3 68 15 15 31 15 46 0z m-778 -13 c15 -18 7 -43 -17 -52 -10
-3 -26 -13 -35 -20 -10 -9 -22 -12 -30 -7 -7 4 -25 7 -41 6 -46 -4 -89 60 -51
75 10 4 22 -1 30 -12 13 -17 15 -17 31 -3 16 14 31 19 89 27 6 0 17 -6 24 -14z
m269 -11 c26 -33 18 -51 -27 -64 -54 -15 -62 -13 -62 15 0 14 -4 25 -10 25
-14 0 -12 37 3 43 34 14 76 6 96 -19z m113 14 c8 -21 -2 -38 -23 -38 -19 0
-27 29 -12 43 11 11 31 8 35 -5z m803 -18 c0 -16 -6 -26 -18 -28 -32 -6 -45 5
-39 33 4 21 9 26 31 23 20 -2 26 -8 26 -28z m-1623 -15 c9 -21 9 -29 -4 -42
-24 -23 -68 -10 -68 20 0 49 52 64 72 22z m2425 19 c-3 -3 -12 -4 -19 -1 -8 3
-5 6 6 6 11 1 17 -2 13 -5z m1913 -20 c0 -8 -7 -14 -15 -14 -15 0 -21 21 -9
33 10 9 24 -2 24 -19z m-4840 6 c0 -5 -4 -10 -10 -10 -5 0 -10 5 -10 10 0 6 5
10 10 10 6 0 10 -4 10 -10z m2720 0 c0 -5 -7 -10 -16 -10 -8 0 -12 5 -9 10 3
6 10 10 16 10 5 0 9 -4 9 -10z m-1080 -10 c0 -5 -4 -10 -10 -10 -5 0 -10 5
-10 10 0 6 5 10 10 10 6 0 10 -4 10 -10z m3736 -1 c10 -17 -13 -36 -27 -22
-12 12 -4 33 11 33 5 0 12 -5 16 -11z m-5121 -19 c3 -5 1 -10 -4 -10 -6 0 -11
5 -11 10 0 6 2 10 4 10 3 0 8 -4 11 -10z m1120 -20 c-3 -5 -15 -10 -26 -10
-11 0 -17 5 -14 10 3 6 15 10 26 10 11 0 17 -4 14 -10z m1011 -11 c10 -17 -13
-36 -27 -22 -12 12 -4 33 11 33 5 0 12 -5 16 -11z m1977 -4 c8 -19 -13 -31
-23 -14 -9 14 -4 29 10 29 4 0 10 -7 13 -15z m-4703 -5 c0 -5 -4 -10 -10 -10
-5 0 -10 5 -10 10 0 6 5 10 10 10 6 0 10 -4 10 -10z m420 0 c0 -5 -4 -10 -10
-10 -5 0 -10 5 -10 10 0 6 5 10 10 10 6 0 10 -4 10 -10z m887 -12 c-3 -8 -6
-5 -6 6 -1 11 2 17 5 13 3 -3 4 -12 1 -19z m-29 -6 c2 -8 -8 -12 -28 -12 -27
0 -30 2 -21 14 14 16 43 15 49 -2z m3982 3 c0 -8 -7 -15 -15 -15 -16 0 -20 12
-8 23 11 12 23 8 23 -8z m-4235 -5 c3 -5 1 -10 -4 -10 -6 0 -11 5 -11 10 0 6
2 10 4 10 3 0 8 -4 11 -10z m993 -46 c12 -4 22 -11 22 -16 0 -14 -53 -5 -58
10 -4 13 2 15 36 6z m2742 -30 c0 -16 -16 -19 -25 -4 -8 13 4 32 16 25 5 -4 9
-13 9 -21z m2861 -14 c-7 -4 -12 -10 -11 -14 5 -21 -8 -27 -34 -15 -25 12 -30
11 -42 -6 -14 -18 -14 -18 -14 3 0 18 -6 22 -37 24 l-38 1 35 4 c19 3 38 7 42
11 4 4 30 5 59 3 29 -2 46 -6 40 -11z m389 -15 c0 -23 -32 -47 -57 -42 -17 3
-23 0 -23 -14 0 -10 -5 -21 -11 -25 -16 -9 -30 18 -17 33 13 17 4 16 -35 -1
-92 -39 -88 -39 -81 -8 5 24 4 25 -8 10 -9 -10 -23 -14 -39 -11 -16 3 -30 -1
-38 -11 -20 -23 -28 -20 -47 19 -24 50 -7 63 80 59 37 -1 76 0 86 4 10 4 57 6
104 4 64 -3 86 -7 86 -17z m-685 -10 c0 -30 -39 -27 -43 3 -3 20 0 23 20 20
15 -2 23 -10 23 -23z m55 21 c0 -2 -3 -11 -6 -20 -9 -23 -24 -20 -24 4 0 11 7
20 15 20 8 0 15 -2 15 -4z m-200 -16 c12 -1 11 -3 -3 -11 -11 -6 -35 -8 -60
-3 -38 7 -40 8 -17 15 14 4 34 6 45 3 11 -2 27 -4 35 -4z m80 -14 c0 -12 -13
-14 -53 -7 -5 0 -5 6 -2 11 9 15 55 12 55 -4z m896 -6 c59 -15 86 -18 107 -11
22 8 29 7 34 -5 9 -24 -23 -51 -45 -38 -10 7 -40 9 -70 6 -35 -3 -52 -1 -52 7
0 6 5 11 12 11 9 0 9 3 0 12 -8 8 -15 8 -27 -2 -12 -10 -19 -10 -27 -2 -7 7
-22 12 -34 12 -12 0 -24 7 -28 15 -8 21 33 20 130 -5z m304 -5 c0 -9 -16 -12
-55 -11 -59 2 -77 21 -20 21 19 1 37 4 40 7 10 10 35 -2 35 -17z m-1435 0 c20
-2 23 -27 4 -33 -5 -2 -9 -13 -9 -24 0 -16 5 -19 24 -14 32 8 44 -11 21 -32
-13 -13 -19 -14 -22 -4 -3 6 -13 12 -23 12 -12 0 -20 10 -24 31 -6 31 -7 31
-49 26 -27 -4 -35 -3 -22 2 19 8 18 10 -8 20 -16 6 -25 16 -22 21 6 9 43 8
130 -5z m-407 -21 c13 -4 22 -2 22 5 0 6 9 11 20 11 28 0 43 -40 21 -57 -10
-8 -12 -12 -3 -13 14 0 17 -36 3 -44 -5 -4 -12 0 -14 6 -4 10 -8 9 -16 -2 -9
-12 -11 -12 -16 2 -4 9 -18 19 -33 23 l-27 7 22 12 c22 11 22 12 4 23 -12 7
-22 8 -28 2 -13 -13 -37 16 -28 31 4 7 17 9 29 6 11 -3 31 -9 44 -12z m1892 6
c0 -5 -5 -10 -11 -10 -5 0 -7 5 -4 10 3 6 8 10 11 10 2 0 4 -4 4 -10z m-2274
-13 c-16 -12 -16 -15 1 -70 17 -55 19 -57 53 -57 29 1 32 2 18 11 -24 13 -23
36 2 49 15 8 25 6 45 -12 14 -12 25 -28 25 -35 0 -7 5 -13 10 -13 6 0 10 5 10
10 0 6 5 10 11 10 5 0 7 -4 4 -10 -4 -6 40 -10 124 -10 94 0 131 3 134 13 4 9
8 8 16 -3 9 -13 14 -13 32 -2 15 10 24 11 32 3 6 -6 21 -11 33 -11 17 0 21 4
17 20 -5 17 0 20 30 20 27 0 37 -5 42 -21 6 -19 13 -21 93 -19 130 4 172 1
172 -10 0 -5 -10 -11 -22 -11 -19 -1 -17 -3 7 -9 17 -4 25 -8 18 -9 -7 0 -10
-8 -7 -16 5 -13 -59 -15 -544 -15 -545 0 -550 0 -545 -20 4 -13 0 -20 -9 -20
-22 0 -29 12 -17 27 9 10 7 13 -7 14 -70 3 -80 19 -13 20 30 1 46 3 37 6 -9 2
-34 13 -55 23 l-38 19 115 1 c129 0 160 6 160 27 0 9 -6 12 -18 9 -13 -4 -25
3 -40 23 l-22 30 23 3 c14 2 23 11 25 26 3 17 10 22 35 22 27 0 29 -1 13 -13z
m884 3 c0 -5 -4 -10 -10 -10 -5 0 -10 5 -10 10 0 6 5 10 10 10 6 0 10 -4 10
-10z m50 -10 c0 -11 7 -20 15 -20 12 0 13 -4 5 -19 -10 -19 -50 -19 -50 0 0 5
-8 9 -17 10 -12 1 -9 4 7 8 16 5 24 13 22 24 -2 9 2 17 8 17 5 0 10 -9 10 -20z
m219 1 c19 -19 19 -19 24 0 6 22 27 26 27 5 0 -8 9 -18 21 -21 18 -6 20 -12
15 -38 -7 -37 -20 -52 -35 -43 -14 9 -14 36 -1 36 6 0 10 7 10 16 0 13 -9 15
-62 9 -115 -13 -113 -14 -116 21 -3 31 -3 31 48 33 37 0 55 -4 69 -18z m-1622
-27 c17 -34 17 -36 -2 -50 -22 -17 -79 -19 -70 -3 9 13 -23 49 -44 49 -9 0 -4
6 12 15 15 8 34 12 41 9 8 -3 17 -1 21 5 11 20 25 12 42 -25z m332 17 c19 -19
19 -19 -6 -26 -29 -7 -54 10 -46 31 7 20 29 18 52 -5z m384 7 c21 -11 21 -11
2 -18 -22 -8 -48 7 -39 21 7 12 11 11 37 -3z m267 2 c0 -5 -4 -10 -9 -10 -6 0
-13 5 -16 10 -3 6 1 10 9 10 9 0 16 -4 16 -10z m-1327 -12 c36 -7 43 -14 28
-32 -9 -11 -26 -13 -64 -9 -29 3 -56 9 -61 14 -6 5 -23 9 -38 9 -19 0 -28 5
-28 16 0 13 11 15 68 11 37 -2 80 -7 95 -9z m457 -3 c0 -8 -7 -15 -15 -15 -22
0 -18 -21 5 -27 19 -5 19 -6 -4 -24 -13 -11 -31 -19 -40 -19 -9 0 -16 -4 -16
-10 0 -5 -7 -10 -15 -10 -9 0 -15 10 -15 26 0 22 4 25 28 22 25 -3 27 -1 26
35 -1 33 2 37 22 37 15 0 24 -6 24 -15z m480 6 c0 -5 -6 -11 -14 -14 -18 -7
-61 4 -47 12 16 10 61 12 61 2z m2472 3 c3 -3 4 -14 1 -25 -6 -22 -33 -26 -33
-4 0 8 -8 15 -17 16 -15 0 -15 2 2 9 24 10 40 12 47 4z m83 -29 c0 -11 -8 -21
-17 -23 -11 -2 -18 3 -18 12 0 9 -4 16 -10 16 -5 0 -10 5 -10 11 0 6 12 9 28
7 19 -2 27 -9 27 -23z m-1325 -29 c0 -12 -5 -27 -12 -34 -9 -9 -9 -12 1 -12
16 0 42 -26 34 -34 -4 -3 -1 -6 5 -6 7 0 12 7 12 15 0 8 5 15 10 15 6 0 10 -9
10 -20 0 -11 -7 -20 -15 -20 -8 0 -24 -9 -35 -20 l-20 -20 0 30 c0 33 -14 39
-29 13 -8 -16 -10 -14 -9 7 1 14 6 30 10 37 5 6 9 30 10 53 0 33 3 38 14 29 8
-6 14 -21 14 -33z m500 29 c0 -8 -7 -15 -15 -15 -8 0 -15 7 -15 15 0 8 7 15
15 15 8 0 15 -7 15 -15z m-430 -5 c0 -5 -2 -10 -4 -10 -3 0 -8 5 -11 10 -3 6
-1 10 4 10 6 0 11 -4 11 -10z m338 -8 c1 -5 11 -8 21 -5 10 3 22 0 26 -6 10
-18 -21 -24 -47 -9 -13 7 -29 13 -37 13 -8 0 -16 5 -18 12 -3 8 6 11 23 9 16
-2 30 -8 32 -14z m-2178 4 c0 -11 -19 -15 -25 -6 -3 5 1 10 9 10 9 0 16 -2 16
-4z m1410 -6 c0 -5 -7 -10 -15 -10 -8 0 -15 5 -15 10 0 6 7 10 15 10 8 0 15
-4 15 -10z m315 0 c3 -6 -1 -13 -10 -16 -19 -8 -30 0 -20 15 8 14 22 14 30 1z
m743 -2 c-3 -7 -11 -13 -18 -13 -7 0 -15 6 -17 13 -3 7 4 12 17 12 13 0 20 -5
18 -12z m62 -13 c0 -8 -7 -15 -15 -15 -8 0 -15 7 -15 15 0 8 7 15 15 15 8 0
15 -7 15 -15z m-681 -4 c10 -6 3 -12 -23 -21 -41 -13 -52 -9 -43 15 7 16 44
20 66 6z m-334 -27 c19 -13 18 -14 -8 -15 -15 -1 -37 -1 -50 -2 -29 -1 -47 10
-47 29 0 13 8 14 43 9 23 -4 51 -14 62 -21z m1295 10 c0 -9 -7 -14 -17 -12
-25 5 -28 28 -4 28 12 0 21 -6 21 -16z m-1453 -13 c10 -16 9 -18 -8 -14 -10 3
-19 12 -19 19 0 20 13 17 27 -5z m983 0 c0 -24 -18 -37 -31 -24 -13 13 -1 43
17 43 8 0 14 -9 14 -19z m320 9 c0 -5 -2 -10 -4 -10 -3 0 -8 5 -11 10 -3 6 -1
10 4 10 6 0 11 -4 11 -10z m-612 -19 c3 -8 -1 -12 -9 -9 -7 2 -15 10 -17 17
-3 8 1 12 9 9 7 -2 15 -10 17 -17z m102 9 c0 -5 -4 -10 -10 -10 -5 0 -10 5
-10 10 0 6 5 10 10 10 6 0 10 -4 10 -10z m-735 -20 c-3 -5 -11 -10 -16 -10 -6
0 -7 5 -4 10 3 6 11 10 16 10 6 0 7 -4 4 -10z m-3015 -9 c0 -6 -4 -13 -10 -16
-5 -3 -10 1 -10 9 0 9 5 16 10 16 6 0 10 -4 10 -9z m3146 -11 c14 0 24 -8 28
-22 9 -34 8 -37 -12 -32 -9 3 -27 -4 -38 -15 -22 -20 -22 -20 -44 4 -16 17
-21 31 -16 49 6 25 34 39 51 24 5 -4 19 -8 31 -8z m1007 5 c4 -8 2 -17 -4 -21
-15 -9 -39 3 -39 21 0 19 36 20 43 0z m-856 -17 c-3 -8 -6 -5 -6 6 -1 11 2 17
5 13 3 -3 4 -12 1 -19z m393 2 c0 -15 -7 -20 -25 -20 -14 0 -25 5 -25 11 0 5
-4 7 -10 4 -5 -3 -10 -2 -10 4 0 5 12 12 28 14 15 2 30 5 35 6 4 0 7 -8 7 -19z
m645 10 c9 -15 -16 -35 -49 -38 -26 -2 -27 0 -15 16 26 33 52 42 64 22z m113
-2 c28 0 29 -14 2 -28 -21 -11 -55 -6 -78 13 -18 14 6 30 33 21 11 -3 30 -6
43 -6z m-1229 -5 c0 -5 -4 -17 -8 -28 -7 -17 -8 -17 -13 8 -4 19 -1 27 8 27 8
0 14 -3 13 -7z m34 -18 c-3 -10 2 -15 16 -15 12 0 21 -4 21 -10 0 -5 -13 -10
-30 -10 -25 0 -30 4 -30 23 0 13 3 27 6 30 11 11 24 -3 17 -18z m1362 15 c18
-8 17 -9 -7 -9 -16 -1 -28 4 -28 9 0 12 8 12 35 0z m-841 -9 c8 -12 -4 -41
-16 -41 -6 0 -8 7 -4 15 3 8 1 15 -4 15 -6 0 -10 5 -10 10 0 12 27 13 34 1z
m46 -11 c13 -8 13 -10 -2 -10 -9 0 -20 5 -23 10 -8 13 5 13 25 0z m70 -15 c0
-25 -13 -31 -44 -19 -22 8 -2 44 24 44 15 0 20 -7 20 -25z m110 9 c0 -14 -3
-14 -15 -4 -8 7 -15 14 -15 16 0 2 7 4 15 4 8 0 15 -7 15 -16z m42 3 c7 -7 22
-16 32 -20 27 -10 12 -21 -19 -13 -14 4 -25 13 -25 20 0 8 -6 17 -12 19 -9 4
-10 6 -1 6 6 1 18 -5 25 -12z m-612 -17 c0 -5 -2 -10 -4 -10 -3 0 -8 5 -11 10
-3 6 -1 10 4 10 6 0 11 -4 11 -10z m-183 -36 c-3 -3 -12 -4 -19 -1 -8 3 -5 6
6 6 11 1 17 -2 13 -5z m155 -6 c-8 -8 -17 -8 -34 0 -22 10 -21 11 12 11 26 1
31 -2 22 -11z m-92 -8 c0 -5 -5 -10 -11 -10 -5 0 -7 5 -4 10 3 6 8 10 11 10 2
0 4 -4 4 -10z m675 0 c3 -5 -1 -10 -9 -10 -9 0 -16 5 -16 10 0 6 4 10 9 10 6
0 13 -4 16 -10z m92 4 c-3 -3 -12 -4 -19 -1 -8 3 -5 6 6 6 11 1 17 -2 13 -5z
m-1770 -27 c9 -10 -517 -7 -542 3 -11 4 105 7 257 6 153 -1 281 -5 285 -9z
m543 0 c8 -4 44 -8 80 -10 36 -3 7 -3 -65 -1 -217 6 -228 7 -145 14 83 6 108
6 130 -3z m-505 -7 c-3 -5 -11 -10 -16 -10 -6 0 -7 5 -4 10 3 6 11 10 16 10 6
0 7 -4 4 -10z m168 3 c-13 -2 -33 -2 -45 0 -13 2 -3 4 22 4 25 0 35 -2 23 -4z
m90 0 c-7 -2 -21 -2 -30 0 -10 3 -4 5 12 5 17 0 24 -2 18 -5z m-5583 -13 c0
-5 -11 -10 -24 -10 -14 0 -28 5 -31 10 -4 6 7 10 24 10 17 0 31 -4 31 -10z
m2013 -17 c-13 -2 -35 -2 -50 0 -16 2 -5 4 22 4 28 0 40 -2 28 -4z m742 -13
c-7 -12 -84 -12 -140 -1 -33 7 -23 9 53 10 60 1 91 -3 87 -9z m920 -9 c567
-13 685 -21 748 -52 38 -18 53 -20 157 -13 122 8 121 21 -2 23 -37 1 -70 6
-73 11 -7 11 282 12 545 1 l154 -6 0 -45 c-1 -25 -2 -62 -3 -82 l-1 -38 -70 0
c-53 0 -70 3 -70 14 0 24 -32 28 -55 6 -25 -24 -106 -28 -127 -6 -12 11 -21
12 -51 1 -29 -10 -110 -12 -335 -9 -163 3 -319 4 -345 4 -59 -1 -87 7 -87 26
0 10 15 14 58 15 l57 2 -57 6 c-31 3 -60 10 -64 14 -10 9 25 36 48 37 9 0 23
6 30 13 7 8 35 14 62 15 51 2 64 7 53 18 -4 4 -109 10 -234 15 -126 4 -304 10
-398 14 -93 4 -267 8 -385 10 -118 2 -246 5 -285 5 -51 1 -65 4 -50 11 11 5
76 7 145 5 69 -2 355 -9 635 -15z m-3044 -114 c6 -55 -5 -70 -48 -65 -24 3
-28 8 -31 40 -4 52 13 80 46 76 24 -3 28 -8 33 -51z m2152 -10 c32 -34 33 -37
10 -37 -14 0 -15 -2 -4 -9 8 -6 -6 -11 -43 -15 -64 -8 -127 1 -105 15 10 6 4
9 -19 9 -18 0 -31 4 -28 9 7 11 -17 21 -49 21 -50 0 -33 19 22 25 32 4 83 16
113 26 51 17 56 17 65 2 6 -10 22 -30 38 -46z m-1475 41 c15 -15 16 -63 2 -89
-16 -28 -49 -24 -61 8 -22 59 21 119 59 81z m-1730 -36 c3 -28 0 -32 -21 -32
-29 0 -38 16 -26 48 13 35 43 25 47 -16z m408 16 l21 -23 -30 -22 c-36 -27
-57 -17 -57 27 0 47 30 55 66 18z m280 14 c7 -4 14 -20 15 -36 4 -32 -18 -53
-45 -43 -19 8 -22 73 -3 80 17 8 21 8 33 -1z m630 -3 c4 -7 8 -27 10 -46 2
-27 -2 -34 -21 -39 -35 -9 -110 9 -110 26 0 8 -4 21 -8 27 -5 8 3 17 25 27 41
18 94 20 104 5z m1102 3 c20 -13 11 -91 -12 -98 -24 -8 -35 5 -43 50 -7 48 19
70 55 48z m1777 -6 c133 -4 125 -3 125 -20 0 -21 -36 -26 -122 -19 -56 4 -78
3 -78 -6 0 -12 41 -16 132 -12 65 3 85 -4 68 -24 -9 -10 -74 -13 -321 -11
-199 2 -313 6 -317 13 -4 5 -14 13 -22 16 -8 3 10 6 40 6 81 2 102 21 23 21
-69 0 -90 13 -40 25 38 10 329 23 372 18 17 -3 80 -6 140 -7z m-632 -7 c59
-12 68 -29 16 -29 -43 0 -26 -20 19 -21 28 -1 31 -3 12 -6 -14 -3 -28 -9 -31
-15 -10 -15 -179 -11 -224 6 -36 13 -38 15 -17 22 21 6 21 7 5 20 -15 11 -16
13 -3 18 53 18 147 20 223 5z m-2157 -34 c0 -30 -13 -48 -28 -39 -4 3 -8 21
-8 40 0 28 4 35 18 32 11 -2 17 -13 18 -33z m204 1 c-14 -14 -24 0 -16 21 6
15 8 15 16 3 6 -9 5 -19 0 -24z m383 28 c11 -11 -5 -34 -24 -34 -12 0 -19 7
-19 20 0 19 28 28 43 14z m219 -26 c-9 -9 -15 -9 -24 0 -10 10 -10 15 2 22 20
12 38 -6 22 -22z m378 22 c0 -5 -7 -10 -15 -10 -8 0 -15 5 -15 10 0 6 7 10 15
10 8 0 15 -4 15 -10z m-864 -128 c6 -4 11 -25 11 -47 5 -267 2 -520 -6 -560
-5 -27 -7 -176 -5 -330 2 -154 1 -293 -4 -310 -6 -23 -14 -30 -33 -30 -23 0
-24 3 -29 90 -9 164 -2 1171 9 1193 3 5 47 1 57 -6z m704 -11 c7 -14 7 -22 0
-26 -6 -4 -8 -15 -5 -25 3 -10 5 -38 5 -61 -1 -65 -1 -73 -1 -214 1 -71 -4
-168 -9 -215 -6 -47 -10 -123 -9 -170 7 -455 4 -514 -29 -508 -16 3 -17 27
-18 278 -1 171 2 280 8 288 7 8 6 17 -3 28 -17 21 -24 611 -7 632 16 19 56 14
68 -7z m760 6 c59 -16 75 -26 61 -40 -5 -5 -7 -23 -4 -38 3 -15 0 -51 -7 -79
-7 -31 -9 -55 -3 -61 9 -9 8 -198 -2 -236 -3 -13 -12 -23 -19 -23 -24 0 -29
-67 -31 -410 -1 -185 -4 -341 -8 -346 -3 -6 -9 -62 -12 -125 -4 -69 -12 -127
-22 -146 -9 -20 -12 -40 -7 -55 4 -13 7 -26 6 -30 -2 -9 -15 -243 -16 -303 -1
-51 -28 -111 -45 -100 -5 2 -12 31 -16 62 -10 73 -6 352 5 373 5 9 2 32 -6 55
-7 22 -14 60 -14 85 1 25 2 230 5 455 2 226 1 435 -2 465 -6 50 -7 53 -16 27
-5 -15 -12 -27 -16 -27 -10 0 -31 46 -31 65 0 25 -17 17 -24 -11 -8 -30 -28
-27 -36 6 -7 30 -30 39 -30 12 0 -25 -10 -52 -19 -52 -17 0 -33 96 -28 166 3
41 1 76 -4 79 -28 18 -2 26 69 22 l79 -4 0 29 c0 21 -5 28 -19 28 -11 0 -16
-4 -13 -10 8 -13 -11 -13 -37 1 -18 10 -25 8 -39 -10 -22 -27 -24 -27 -26 11
-1 17 -7 36 -13 42 -14 14 -12 35 5 52 11 11 12 20 5 34 -12 23 2 34 33 26 12
-3 58 1 102 8 102 18 139 18 195 3z m1623 -3 c76 -6 87 -9 87 -25 0 -11 6 -19
13 -19 6 -1 1 -10 -13 -22 -16 -14 -21 -22 -12 -25 6 -3 12 -11 12 -18 0 -8 4
-16 9 -20 12 -7 43 24 36 35 -3 5 -7 27 -9 49 -3 36 -1 41 23 46 14 3 67 3
116 0 50 -3 106 -5 126 -5 29 0 38 -5 48 -26 9 -22 9 -30 -3 -43 -13 -15 -15
-141 -3 -263 2 -20 0 -79 -4 -130 -5 -51 -11 -239 -14 -418 -2 -179 -9 -358
-15 -398 -9 -69 -32 -114 -48 -97 -4 4 -1 10 6 12 6 3 12 9 12 14 0 5 -6 9
-12 9 -9 0 -14 24 -16 77 -1 42 -6 102 -10 133 -7 46 -7 303 0 540 2 49 -5
114 -18 178 -3 13 -12 22 -23 22 -24 0 -27 -44 -35 -410 -7 -330 -16 -579 -23
-596 -3 -8 -16 -14 -29 -14 -18 0 -24 5 -24 23 0 13 -3 27 -7 31 -12 11 -13
40 -17 471 -5 443 -9 501 -37 528 -19 17 -19 17 -29 -8 -6 -15 -10 -50 -10
-80 0 -38 -5 -59 -20 -76 -20 -24 -20 -24 -35 -4 -17 22 -21 34 -30 108 -4 27
-9 46 -12 43 -18 -18 -30 -242 -28 -546 2 -309 -2 -394 -23 -583 -4 -38 -5
-70 -1 -73 8 -5 -1 -96 -11 -107 -4 -5 -5 -39 -2 -76 3 -45 1 -71 -7 -75 -6
-4 -11 -19 -11 -34 0 -15 -5 -34 -10 -42 -7 -11 -10 -5 -10 23 0 24 -5 40 -15
43 -12 5 -15 23 -14 88 1 44 -2 98 -6 118 -4 20 -3 44 3 54 7 12 6 26 -1 43
-7 17 -11 207 -13 561 -2 294 -7 553 -11 575 -5 26 -14 41 -26 43 -14 3 -17
-4 -17 -40 0 -73 -11 -117 -31 -123 -26 -8 -60 16 -53 37 3 10 1 18 -4 18 -5
0 -12 -9 -15 -21 -4 -15 -12 -20 -29 -17 -18 2 -24 11 -30 47 -9 51 11 86 43
76 18 -6 22 25 19 160 -1 33 -1 71 -1 85 1 14 2 41 3 60 1 19 -2 43 -6 52 -6
14 -2 20 19 28 29 11 105 2 86 -10 -9 -5 -7 -11 4 -20 14 -11 17 -10 22 8 6
25 48 43 83 37 14 -3 64 -8 113 -11z m-2579 -9 c4 -11 -2 -15 -28 -15 -22 0
-33 5 -33 15 0 10 10 15 28 15 15 0 29 -7 33 -15z m1363 3 c30 -4 36 -13 18
-28 -14 -11 -13 -14 2 -26 17 -12 17 -13 0 -19 -11 -5 -25 -1 -36 9 -17 16
-19 15 -23 -9 -5 -23 -2 -25 28 -25 34 0 52 -14 34 -25 -5 -3 -10 -16 -10 -28
0 -12 -5 -29 -11 -37 -8 -12 -9 -11 -4 6 7 28 -21 55 -31 29 -4 -10 -1 -21 7
-26 11 -7 11 -11 2 -17 -8 -5 -12 -48 -14 -132 0 -69 -4 -129 -7 -135 -8 -13
-13 -31 -19 -75 -7 -58 -11 -64 -28 -50 -8 7 -15 27 -15 45 0 18 -6 38 -14 44
-12 10 -18 7 -31 -19 -16 -32 -42 -36 -37 -7 1 9 -4 33 -13 53 -8 20 -15 45
-15 55 0 27 -18 24 -22 -3 -2 -13 -11 -24 -21 -26 -14 -3 -17 3 -16 25 1 15
-2 63 -6 105 -9 86 2 116 34 98 21 -11 50 3 31 15 -7 5 -27 8 -44 9 -18 1 -30
6 -29 13 1 6 3 48 4 93 2 72 5 83 23 91 19 7 207 6 263 -3z m470 -7 c8 -11 8
-18 0 -23 -8 -5 -7 -11 1 -21 7 -8 10 -21 7 -29 -3 -8 -1 -27 5 -42 8 -21 7
-32 -5 -48 -14 -21 -11 -103 4 -120 10 -11 -7 -169 -22 -215 -18 -57 -38 -48
-60 25 -11 35 -22 60 -25 57 -4 -4 -14 -30 -23 -58 -19 -61 -35 -70 -44 -25
-4 18 -11 38 -17 45 -5 6 -10 33 -12 59 -4 68 -26 70 -26 2 -1 -29 -9 -70 -18
-90 l-18 -37 -18 34 c-11 20 -20 59 -21 92 -2 66 -11 93 -30 93 -16 0 -25 -44
-18 -86 6 -36 -14 -81 -29 -66 -5 5 -12 52 -14 103 -3 52 -9 109 -14 128 -5
19 -6 39 -3 45 4 6 8 40 9 76 2 114 1 110 32 110 l28 0 -3 -82 c-1 -46 -3 -92
-4 -103 -2 -11 -2 -39 -1 -62 2 -35 6 -43 21 -43 15 0 19 6 17 25 -1 14 -6 28
-9 32 -10 9 -9 43 1 43 10 0 7 111 -3 151 -10 38 20 46 170 46 106 0 132 -3
142 -16z m251 -70 c2 -46 -1 -96 -6 -111 -7 -18 -7 -31 0 -38 9 -9 6 -210 -5
-320 -4 -37 -24 -64 -30 -41 -2 8 -9 30 -15 49 -10 32 -17 98 -27 235 -3 28
-7 76 -11 108 -3 31 -1 70 4 86 6 15 7 46 2 69 -4 23 -5 44 -1 47 3 3 23 5 45
3 l40 -3 4 -84z m1291 80 c7 -5 12 -24 12 -42 -1 -39 -7 -84 -11 -84 -7 0 -6
-146 1 -151 5 -3 6 -87 4 -187 -3 -100 -8 -337 -10 -527 -3 -190 -10 -367 -15
-395 -6 -27 -12 -65 -13 -84 -2 -37 -13 -46 -37 -31 -13 8 -13 13 -2 31 11 18
11 24 -3 39 -13 14 -19 51 -25 162 -11 172 -15 385 -12 568 2 132 -3 324 -12
488 -3 45 -1 82 4 82 10 0 8 65 -3 76 -16 17 -7 53 16 57 40 8 92 7 106 -2z
m-4559 -5 c0 -3 -4 -16 -9 -30 -7 -17 -7 -26 2 -29 13 -4 14 -105 7 -762 -4
-376 -16 -615 -31 -615 -5 0 -12 -18 -15 -41 -6 -33 -10 -40 -27 -37 -25 4
-31 35 -10 47 14 7 13 12 -6 32 -18 19 -21 30 -15 54 4 17 8 298 9 625 2 573
7 700 26 700 5 0 5 10 -1 24 -5 13 -6 27 -3 30 7 7 73 8 73 2z m260 -5 c0 -18
-21 -23 -58 -16 -31 6 -34 9 -17 15 28 12 75 12 75 1z m1271 -6 c0 -5 -9 -11
-21 -13 -20 -3 -27 8 -13 22 10 9 34 3 34 -9z m1582 -5 c-6 -22 -11 -24 -33
-10 -13 9 -13 11 0 20 24 16 39 12 33 -10z m1255 -12 c6 -17 8 -36 3 -42 -12
-16 -13 -74 -7 -316 2 -74 -1 -117 -12 -147 -10 -30 -12 -56 -7 -90 11 -65 8
-666 -3 -726 -10 -55 -17 -65 -38 -52 -18 11 -21 39 -29 265 -2 85 -5 157 -6
160 -6 36 10 301 21 355 6 25 5 55 -2 80 -5 22 -14 74 -18 115 -4 41 -10 82
-14 91 -4 10 -3 20 3 23 7 5 7 15 0 32 -12 33 -7 214 6 214 6 0 3 5 -6 10 -12
7 -17 35 -10 58 1 1 25 2 54 2 50 0 53 -2 65 -32z m5169 -50 c-2 -18 -4 -6 -4
27 0 33 2 48 4 33 2 -15 2 -42 0 -60z m-8602 33 c-3 -5 -2 -12 2 -14 14 -9 9
-398 -6 -447 -12 -40 -14 -42 -24 -25 -15 26 -17 452 -2 478 5 9 16 17 23 17
7 0 11 -4 7 -9z m8015 -21 c0 -16 -4 -30 -10 -30 -5 0 -10 14 -10 30 0 17 5
30 10 30 6 0 10 -13 10 -30z m-7769 4 c10 -13 10 -17 -2 -25 -10 -7 -11 -11
-2 -17 13 -8 12 -29 -1 -50 -5 -8 -4 -18 1 -23 10 -10 8 -200 -2 -276 -5 -33
-10 -43 -25 -43 -10 0 -21 4 -24 8 -5 8 -11 292 -6 302 6 15 4 102 -3 107 -12
7 13 33 33 33 10 0 23 -7 31 -16z m358 -64 c8 -130 6 -344 -3 -365 -5 -11 -8
-26 -7 -34 2 -8 0 -34 -4 -58 -9 -63 -30 -41 -41 45 -9 66 -10 364 -1 432 2
19 5 41 6 48 0 8 10 12 23 10 20 -3 23 -10 27 -78z m1579 69 c13 -8 16 -22 14
-62 -2 -29 -8 -62 -14 -74 -8 -15 -8 -26 -1 -35 15 -18 10 -235 -5 -250 -19
-19 -25 -3 -34 99 -4 54 -11 125 -14 158 -9 82 -7 147 3 168 6 10 31 9 51 -4z
m-2852 -25 c-3 -7 -2 -15 3 -18 4 -3 8 -46 9 -97 2 -87 6 -109 16 -98 3 3 7
45 10 94 3 50 6 92 7 95 1 3 2 12 3 20 1 8 10 16 20 18 15 3 18 0 13 -17 -3
-12 -1 -21 3 -21 14 0 16 -183 5 -335 -5 -60 -8 -113 -7 -117 1 -3 -5 -12 -13
-18 -8 -7 -15 -11 -16 -9 -5 23 -9 72 -15 161 -4 59 -10 106 -14 103 -4 -3
-11 -46 -15 -97 -8 -114 -12 -152 -23 -247 -5 -44 -5 -96 1 -125 5 -28 7 -145
5 -261 -3 -202 -4 -211 -26 -243 -19 -26 -27 -31 -38 -21 -8 6 -14 20 -14 30
0 11 -8 27 -17 37 -13 12 -19 35 -20 77 -1 33 -5 98 -8 145 -9 104 6 214 33
244 28 30 32 49 14 69 -12 13 -12 17 -2 17 11 0 11 3 2 12 -7 7 -12 21 -12 33
0 11 -7 31 -16 43 -23 33 -35 145 -33 302 2 183 2 185 18 203 11 14 11 17 0
17 -34 0 11 19 51 22 59 4 82 -1 76 -18z m290 -11 c-10 -10 -19 5 -10 18 6 11
8 11 12 0 2 -7 1 -15 -2 -18z m1091 -10 c-3 -3 -11 -2 -17 2 -8 5 -7 11 2 22
12 15 13 14 16 -1 2 -10 1 -20 -1 -23z m-2708 -1 c19 -47 15 -452 -5 -484 -4
-6 -7 -20 -8 -32 -1 -12 -8 -21 -16 -21 -8 0 -15 9 -16 21 -1 12 -4 26 -8 32
-3 6 -6 98 -5 204 1 106 1 208 1 226 0 17 3 32 8 32 4 0 11 11 14 25 8 33 21
32 35 -3z m421 -20 c0 -26 5 -53 11 -59 5 -5 10 -32 10 -59 0 -198 -4 -267
-16 -292 -16 -32 -25 -69 -31 -132 -3 -25 -10 -55 -16 -67 -9 -18 -7 -28 8
-50 25 -38 33 -135 22 -268 -5 -60 -10 -135 -12 -166 -2 -31 -10 -69 -18 -83
l-14 -27 -13 28 c-9 19 -15 99 -18 251 -4 184 -2 229 10 260 12 29 13 49 6 87
-5 27 -8 53 -7 59 1 6 -1 27 -5 46 -3 19 -8 112 -11 206 -3 128 -1 177 8 196
7 13 11 39 8 56 -7 48 3 62 43 62 l35 0 0 -48z m281 11 c19 -97 3 -518 -22
-565 -15 -27 -29 -11 -35 38 -9 66 -15 427 -8 444 4 8 6 32 5 53 -4 68 47 93
60 30z m931 -55 c3 -110 -4 -293 -13 -317 -21 -53 -31 -2 -33 165 -2 93 -1
177 2 187 2 9 13 17 23 17 16 0 19 -8 21 -52z m4182 -76 c17 -34 25 -66 26
-108 3 -195 -9 -1105 -15 -1115 -11 -16 -21 -131 -24 -263 -1 -45 -11 -67 -29
-64 -13 2 -17 15 -18 51 -1 26 -6 53 -11 59 -13 16 -10 61 4 65 7 3 8 17 3 41
-17 74 -30 231 -36 422 -3 107 -8 198 -9 201 -4 6 12 527 18 612 2 26 0 50 -5
53 -10 6 -11 78 -1 87 3 4 21 7 39 7 30 0 36 -5 58 -48z m203 36 c4 -7 9 -24
11 -38 2 -13 8 -31 15 -38 7 -9 10 -61 9 -156 -1 -77 -3 -341 -5 -586 -2 -331
-5 -451 -15 -467 -8 -14 -12 -68 -12 -158 0 -99 -4 -146 -15 -172 -9 -20 -13
-44 -10 -53 3 -10 1 -36 -4 -59 -7 -33 -6 -45 6 -56 17 -18 12 -19 -20 -4 -19
8 -26 21 -30 52 -3 23 -2 48 3 57 6 11 4 27 -6 45 -10 19 -16 77 -20 193 -3
91 -9 187 -15 215 -9 50 -15 425 -9 592 5 123 4 211 -4 333 -7 106 4 177 27
185 7 2 11 21 11 47 -1 33 4 48 20 62 25 20 52 23 63 6z m260 -40 c6 -26 14
-52 18 -59 7 -10 9 -103 4 -164 0 -11 0 -40 1 -65 2 -25 -2 -117 -9 -205 -7
-91 -9 -216 -5 -290 8 -163 7 -339 -2 -475 -5 -58 -7 -125 -6 -149 1 -25 -4
-51 -10 -59 -9 -10 -8 -16 3 -23 9 -6 10 -12 4 -16 -6 -5 -11 -39 -11 -78 0
-84 -8 -145 -22 -171 -6 -11 -8 -31 -5 -45 5 -27 -11 -69 -26 -69 -11 0 -45
65 -54 100 -20 80 -38 570 -41 1135 -3 315 -7 464 -16 497 -11 44 -10 49 11
80 46 66 99 108 134 105 15 -2 23 -14 32 -49z m240 22 c15 -30 43 -41 63 -25
18 15 180 27 200 15 29 -18 45 -271 30 -485 -12 -170 -16 -462 -7 -471 4 -4 2
-13 -4 -20 -6 -7 -7 -19 -3 -25 11 -18 11 -81 0 -107 -7 -18 -6 -26 5 -32 12
-8 11 -11 -4 -23 -18 -13 -48 -112 -51 -169 0 -16 -4 -28 -8 -28 -5 0 -8 -4
-8 -10 0 -5 9 -10 20 -10 29 0 24 -19 -8 -31 -25 -8 -27 -14 -30 -65 -2 -42 1
-61 14 -75 16 -18 15 -19 -10 -29 -14 -5 -25 -15 -24 -22 2 -6 -5 -14 -14 -16
-13 -2 -18 3 -18 17 0 11 -7 27 -16 35 -14 15 -14 16 0 16 9 0 16 7 16 15 0 8
-5 15 -11 15 -7 0 -9 12 -5 33 3 20 0 39 -9 51 -8 11 -11 26 -7 35 4 9 7 32 5
51 -4 65 -19 190 -24 200 -3 7 -8 152 -10 325 -1 105 -7 420 -8 468 0 16 0 33
2 39 1 6 -4 13 -10 15 -10 3 -13 -11 -13 -51 0 -30 -4 -57 -9 -60 -5 -3 -11
-25 -15 -48 -9 -64 -10 -393 -1 -407 13 -22 6 -300 -8 -330 -8 -15 -14 -72
-16 -140 -2 -132 -10 -154 -49 -145 -54 13 -59 26 -64 149 -2 62 -9 119 -15
127 -6 7 -10 20 -10 28 -1 8 -3 67 -7 130 -12 232 -16 587 -8 660 5 41 6 82 2
90 -4 8 -10 64 -13 123 l-6 108 42 44 c41 42 81 67 102 61 6 -1 15 -13 22 -26z
m1571 23 c36 -4 56 -11 60 -22 9 -24 55 -67 80 -75 12 -4 22 -11 22 -16 0 -4
16 -10 36 -12 30 -4 37 -1 45 19 5 13 21 28 36 34 31 12 212 7 278 -8 37 -8
40 -11 43 -45 3 -39 -19 -94 -47 -115 -14 -11 -14 -12 2 -13 34 0 43 -20 37
-84 -3 -33 -10 -70 -16 -81 -8 -17 -10 -79 -5 -266 0 -20 7 -56 15 -80 10 -31
14 -93 15 -209 0 -214 6 -364 16 -379 4 -7 4 -20 0 -29 -4 -9 -6 -57 -5 -107
6 -249 3 -406 -14 -730 -4 -71 -12 -105 -29 -116 -6 -4 -5 -25 1 -55 11 -57 5
-136 -12 -146 -8 -6 -7 -11 3 -17 11 -7 9 -11 -8 -20 -13 -8 -21 -21 -21 -39
0 -34 -10 -49 -35 -54 -12 -2 -20 -11 -20 -23 0 -11 -8 -21 -18 -23 -13 -3
-17 3 -17 22 0 14 -4 26 -10 26 -5 0 -10 8 -10 18 0 10 -7 28 -16 40 -12 17
-13 26 -4 37 8 10 8 15 -3 22 -8 4 -17 22 -20 38 -22 114 -27 148 -29 208 -1
37 -5 67 -10 67 -5 0 -6 11 -2 24 3 13 1 27 -4 30 -7 4 -7 18 -1 42 7 23 7 53
0 87 -5 29 -10 66 -10 82 0 17 -2 62 -4 100 -3 39 -8 279 -11 535 -3 256 -8
506 -11 555 -5 62 -2 111 8 160 12 57 16 228 6 282 -3 19 2 33 25 60 l25 29
-32 19 c-18 10 -48 35 -68 56 -27 28 -45 39 -66 39 -41 0 -82 -34 -82 -68 0
-15 -2 -51 -3 -80 -2 -30 0 -56 4 -58 10 -7 -1 -73 -18 -105 -17 -34 -23 -201
-8 -220 7 -8 10 -27 8 -43 -3 -32 20 -86 37 -86 8 0 7 -5 -1 -15 -14 -16 -17
-266 -5 -360 3 -27 7 -63 9 -80 2 -16 6 -47 10 -67 5 -20 4 -43 0 -50 -10 -14
-12 -44 -16 -185 -1 -75 1 -96 15 -111 13 -14 14 -21 4 -31 -9 -9 -9 -14 3
-21 11 -7 11 -10 2 -10 -9 0 -10 -5 -3 -19 6 -10 7 -21 4 -25 -10 -10 -11
-370 0 -383 6 -9 5 -18 -2 -27 -7 -8 -14 -41 -17 -73 -2 -32 -7 -65 -10 -75
-2 -9 0 -19 5 -22 6 -4 8 -21 5 -39 -3 -17 -7 -52 -9 -77 -13 -142 -17 -199
-18 -237 -1 -24 -5 -43 -10 -43 -5 0 -7 -7 -4 -15 4 -8 1 -17 -5 -21 -6 -4 -8
-22 -4 -45 4 -22 2 -40 -4 -44 -7 -4 -7 -11 -2 -18 12 -15 12 -48 0 -41 -4 3
-8 0 -8 -5 0 -6 -10 -11 -22 -12 -14 0 -17 -2 -8 -6 46 -15 46 -15 25 -23 -14
-6 -15 -9 -5 -10 8 -1 -1 -8 -20 -15 -34 -13 -34 -14 -7 -14 27 -1 41 -31 13
-31 -13 0 -27 -42 -28 -87 0 -19 -4 -22 -26 -16 -20 5 -24 3 -19 -10 7 -18
-18 -56 -29 -44 -5 4 -3 16 3 26 12 19 8 31 -10 31 -5 0 -7 -7 -3 -15 4 -11
-2 -15 -22 -15 -26 1 -26 1 -8 15 11 8 18 16 15 18 -2 1 -12 9 -21 16 -15 11
-21 11 -33 1 -11 -9 -15 -9 -15 -1 0 7 -5 9 -12 5 -7 -4 -8 -3 -4 4 4 7 14 12
22 12 8 0 14 4 14 9 0 5 10 12 23 14 19 4 18 4 -5 6 -19 1 -28 7 -28 17 0 13
-3 14 -15 4 -8 -7 -22 -9 -31 -6 -13 5 -14 9 -4 21 10 12 10 18 0 29 -8 10 -9
20 -2 33 8 13 6 20 -6 29 -21 15 -22 105 -2 129 11 13 10 19 -8 36 -12 11 -22
28 -22 37 0 10 -6 24 -12 31 -10 11 -10 13 0 7 15 -9 15 -6 -3 38 -9 20 -13
42 -9 48 4 5 0 14 -7 19 -12 8 -12 10 0 18 18 11 6 45 -11 35 -9 -5 -9 -2 1 9
11 14 11 25 1 61 -7 25 -9 50 -5 56 4 7 3 15 -3 19 -13 8 -19 55 -8 58 19 3
25 28 10 44 -8 9 -12 23 -8 32 3 8 0 26 -7 38 -9 17 -9 24 0 27 13 4 15 29 2
34 -12 4 -16 76 -6 101 4 9 3 17 -3 17 -6 0 -9 53 -8 138 2 75 -1 147 -5 159
-5 14 -4 23 4 27 9 3 9 6 0 13 -7 5 -10 29 -9 61 3 50 1 54 -23 64 -24 10 -25
11 -6 18 11 4 25 3 32 -2 19 -15 30 -1 25 32 -3 20 -12 35 -26 40 -11 5 -16 9
-9 9 18 1 12 73 -10 104 -18 27 -18 29 -2 41 17 12 17 13 0 20 -15 6 -17 15
-11 74 6 61 4 71 -15 96 -19 25 -21 34 -14 99 5 40 9 92 10 117 1 38 5 45 23
48 26 4 25 3 10 37 -10 22 -9 27 8 39 16 12 16 15 4 20 -8 3 -27 10 -43 16
-41 15 -49 48 -42 184 3 67 6 131 5 144 0 13 6 35 14 50 9 19 11 43 6 81 -4
33 -3 66 4 83 8 23 7 35 -7 61 -10 18 -19 44 -19 57 -1 14 -6 31 -12 38 -15
20 10 32 69 32 57 0 90 14 56 23 -28 7 -27 24 2 30 36 7 228 7 285 0z m527
-25 l30 -16 -49 -7 c-49 -8 -169 -1 -187 11 -6 3 -3 12 8 20 24 19 156 14 198
-8z m378 12 c10 0 16 -4 12 -9 -3 -5 5 -12 17 -14 13 -2 -9 -5 -47 -6 -65 -1
-71 1 -72 20 -2 19 2 21 35 15 20 -3 45 -6 55 -6z m605 -26 c34 -14 41 -20 30
-28 -10 -8 -14 -50 -15 -165 -1 -85 -6 -157 -12 -160 -5 -3 -9 -36 -9 -74 0
-37 -3 -81 -7 -98 -5 -20 -2 -38 9 -54 9 -13 16 -33 16 -43 0 -11 7 -25 15
-32 14 -11 15 -38 9 -194 -8 -213 -8 -209 1 -356 11 -167 12 -251 2 -257 -4
-3 -3 -11 3 -18 7 -8 10 -33 9 -57 -2 -24 1 -49 5 -56 4 -7 3 -19 -4 -27 -7
-8 -8 -21 -3 -32 4 -10 8 -56 8 -103 0 -47 4 -88 9 -92 6 -4 5 -13 -3 -22 -10
-11 -10 -16 -2 -16 8 0 9 -5 1 -19 -7 -14 -7 -22 0 -26 6 -4 8 -16 4 -28 -11
-34 -12 -221 -1 -234 6 -9 6 -18 -2 -27 -6 -7 -9 -21 -5 -30 3 -9 3 -24 -1
-33 -4 -10 -7 -61 -7 -115 0 -90 -2 -97 -22 -103 -20 -6 -20 -7 7 -17 22 -8
26 -13 16 -24 -6 -8 -17 -14 -24 -14 -16 0 -17 -122 -1 -133 6 -6 4 -6 -8 -3
-15 5 -17 2 -13 -14 7 -28 -18 -39 -64 -28 -34 9 -37 12 -26 30 10 16 9 21 -5
29 -22 12 -26 99 -5 99 8 0 7 3 -3 10 -9 6 -14 21 -12 39 2 16 -2 40 -9 52 -7
15 -12 78 -13 177 -1 123 -4 155 -16 162 -11 7 -11 10 -2 10 13 0 13 0 -4 273
-3 59 -2 87 6 87 6 0 5 9 -4 23 -15 23 -19 104 -5 122 4 6 3 57 -3 115 -5 58
-10 115 -11 128 -1 12 -6 22 -10 22 -5 0 -5 9 -2 20 4 11 8 56 10 100 2 43 6
84 10 89 3 6 1 11 -5 11 -8 0 -9 34 -5 118 12 209 9 278 -16 378 -9 36 -8 45
8 63 14 17 17 34 15 80 -2 33 1 62 7 65 6 4 5 21 -5 49 -10 27 -11 43 -4 45 5
2 10 15 10 30 0 14 7 33 16 43 14 16 13 21 -25 69 -23 29 -41 60 -41 71 0 11
-11 24 -25 31 -18 8 -22 15 -15 23 5 7 7 14 4 18 -3 3 6 13 21 23 14 9 24 23
21 30 -3 7 0 15 7 18 24 11 153 -2 195 -20z m-5972 5 c10 -17 -13 -36 -27 -22
-12 12 -4 33 11 33 5 0 12 -5 16 -11z m3651 -25 c21 -23 40 -33 29 -16 -7 11
52 35 70 28 12 -5 15 -16 12 -41 -3 -27 0 -35 12 -35 13 0 13 -1 0 -10 -8 -5
-10 -10 -4 -10 23 0 50 -237 30 -268 -3 -5 -8 -65 -12 -133 -3 -68 -8 -126 -9
-129 -1 -3 1 -30 5 -60 8 -59 2 -70 -38 -70 -14 0 -25 8 -30 23 -12 35 -3 377
10 377 4 0 5 34 2 76 -4 63 -2 79 12 95 16 18 16 20 -1 39 -21 23 -48 26 -63
8 -5 -7 -10 -62 -11 -123 -1 -117 -1 -118 -20 -180 -9 -31 -10 -75 -1 -200 7
-88 13 -235 14 -327 1 -111 6 -172 13 -179 9 -9 9 -17 0 -32 -10 -15 -9 -21 2
-25 11 -4 11 -6 0 -13 -12 -8 -12 -11 1 -19 12 -7 12 -12 2 -22 -7 -7 -12 -39
-12 -79 0 -44 -4 -69 -12 -73 -9 -4 -10 -8 -2 -11 8 -4 9 -18 5 -38 -4 -18 -6
-70 -5 -117 2 -46 -2 -90 -7 -97 -6 -6 -9 -18 -7 -25 2 -7 -6 -35 -17 -61 -23
-57 -55 -66 -55 -16 0 17 -4 39 -10 49 -13 24 -20 150 -8 150 5 0 1 11 -8 25
-13 20 -14 28 -4 40 10 12 10 15 -1 15 -10 0 -10 3 -2 11 7 7 8 19 3 33 -5 11
-12 51 -15 88 -4 37 -11 70 -16 74 -5 3 -6 16 -3 28 4 19 1 25 -20 30 -21 5
-56 49 -56 71 0 12 49 4 61 -11 11 -14 13 -14 21 1 5 8 6 24 3 35 -5 16 -10
18 -24 11 -25 -14 -56 -3 -71 24 -15 29 -10 289 6 305 17 17 68 -6 60 -26 -4
-9 -2 -22 4 -29 12 -15 2 -75 -13 -75 -6 0 -8 -2 -5 -5 3 -3 17 -1 31 4 23 9
25 13 17 41 -5 17 -7 37 -4 43 2 7 6 102 7 211 2 143 -1 200 -10 207 -8 7 -15
5 -21 -8 -13 -24 -23 -218 -13 -246 4 -12 5 -35 2 -52 -5 -23 -12 -31 -31 -33
-54 -5 -55 0 -53 225 1 114 4 234 6 266 1 31 -1 57 -6 57 -4 0 -5 6 0 13 17
26 13 59 -13 102 -14 25 -30 45 -35 45 -16 0 -10 23 13 47 22 24 70 31 96 14
8 -5 31 -3 55 5 57 17 117 8 144 -22z m2861 2 c12 -12 12 -17 -2 -37 -9 -13
-16 -35 -16 -49 0 -14 -6 -32 -12 -39 -11 -10 -9 -15 6 -26 18 -14 18 -15 -3
-32 l-22 -18 20 -45 c20 -45 15 -70 -14 -70 -18 0 -28 -32 -13 -41 7 -4 11
-24 10 -48 -4 -54 15 -121 41 -149 17 -18 19 -25 8 -31 -10 -7 -11 -13 -1 -31
10 -19 13 -139 10 -380 -1 -74 7 -267 11 -275 3 -6 5 -45 5 -87 -1 -43 1 -78
4 -78 3 0 6 -37 7 -83 1 -45 4 -107 7 -137 2 -30 5 -86 5 -125 0 -100 1 -142
4 -210 2 -33 -1 -66 -6 -72 -6 -8 -5 -18 2 -27 8 -9 8 -16 2 -20 -13 -9 -4
-150 10 -155 6 -2 2 -9 -9 -16 -14 -10 -17 -22 -14 -45 2 -16 -1 -37 -7 -44
-10 -11 -8 -16 8 -21 25 -7 27 -21 6 -29 -12 -4 -13 -10 -3 -31 9 -19 9 -28 0
-37 -7 -7 -12 -20 -12 -30 0 -10 -4 -18 -8 -18 -5 0 -9 -19 -9 -42 0 -24 -3
-52 -8 -62 -7 -16 -5 -18 13 -14 12 4 22 3 22 -2 0 -15 -94 -17 -109 -2 -12
12 -12 15 0 23 11 7 10 11 -7 23 -17 12 -21 25 -20 65 1 34 -3 52 -12 56 -7 3
-10 9 -7 15 3 6 -1 13 -9 16 -13 5 -12 9 5 23 21 17 21 19 6 91 -10 48 -12 82
-6 97 6 15 5 23 -2 23 -8 0 -8 4 0 13 6 8 8 17 4 20 -10 11 -11 150 0 171 6
13 5 21 -4 27 -9 5 -15 31 -16 71 -1 35 -4 80 -6 101 -1 20 0 37 3 37 3 0 5
14 5 30 0 17 -3 30 -6 30 -3 0 -5 46 -4 103 1 56 -2 110 -7 120 -6 11 -5 17 2
17 6 0 9 4 5 10 -3 5 -8 42 -10 82 -6 88 -12 135 -20 148 -3 6 -2 10 3 10 12
0 22 36 14 45 -10 10 -8 49 3 58 7 6 7 10 0 13 -6 2 -9 31 -7 66 4 95 3 506
-2 565 -3 39 -1 53 10 57 11 4 12 10 5 24 -7 13 -7 22 1 30 8 8 8 15 -2 27
-11 14 -10 17 9 22 19 5 20 7 5 18 -14 10 -15 17 -6 44 9 27 9 36 -3 48 -20
19 -19 29 5 53 l21 21 -28 12 c-43 19 -103 61 -103 72 1 14 20 37 55 64 27 21
37 23 105 17 43 -4 80 -12 88 -20z m562 11 c25 -7 43 -15 40 -18 -3 -3 2 -14
10 -24 11 -14 12 -19 3 -22 -9 -3 -10 -10 -3 -22 5 -10 6 -21 3 -25 -3 -3 -1
-6 5 -6 7 0 12 -6 12 -14 0 -14 -68 -33 -97 -27 -7 1 -13 -3 -13 -9 0 -5 3
-10 8 -10 4 0 14 -12 23 -26 12 -20 14 -36 7 -72 -6 -34 -5 -48 4 -54 20 -12
-3 -41 -40 -53 -33 -10 -46 -45 -16 -45 10 0 13 -6 9 -19 -3 -11 0 -21 9 -24
8 -3 16 -18 18 -34 2 -22 12 -32 45 -48 35 -16 44 -26 49 -53 5 -24 2 -37 -7
-44 -9 -6 -10 -11 -3 -14 11 -5 11 -17 -2 -346 -2 -64 0 -119 4 -122 5 -3 7
-28 4 -56 -3 -32 0 -55 8 -65 10 -12 10 -15 0 -15 -10 0 -10 -3 -1 -14 8 -9 8
-16 2 -20 -5 -4 -6 -18 -2 -34 9 -36 7 -134 -3 -150 -4 -7 -4 -21 0 -30 4 -9
8 -39 10 -65 2 -27 8 -55 14 -62 6 -7 9 -48 7 -100 -2 -57 1 -92 9 -103 8 -11
9 -23 3 -34 -10 -19 -9 -158 2 -173 6 -9 5 -93 -1 -105 -6 -11 -5 -80 2 -80 3
0 4 -9 1 -19 -3 -10 0 -28 6 -39 7 -14 7 -24 -3 -37 -9 -12 -11 -49 -9 -128 2
-73 -1 -115 -9 -124 -8 -10 -8 -17 0 -25 15 -15 15 -31 1 -22 -9 5 -10 -1 -5
-20 4 -17 1 -34 -8 -48 -11 -15 -12 -26 -5 -40 7 -14 7 -23 -2 -34 -8 -10 -8
-14 0 -14 6 0 11 -7 11 -15 0 -8 -5 -15 -12 -15 -9 0 -9 -3 0 -12 9 -9 7 -14
-5 -24 -13 -9 -15 -15 -6 -26 7 -8 8 -19 3 -28 -5 -8 -6 -18 -4 -22 3 -4 0 -8
-5 -8 -6 0 -11 -7 -11 -15 0 -8 4 -15 9 -15 5 0 8 -11 7 -25 -1 -29 -36 -41
-66 -23 -21 14 -27 28 -10 28 22 0 8 19 -19 25 -34 7 -47 45 -24 68 13 13 13
18 -3 42 -21 32 -25 45 -29 100 -2 22 -4 40 -6 40 -7 0 -5 83 2 97 6 11 4 18
-6 22 -11 4 -13 20 -10 70 3 41 1 67 -6 72 -8 5 -8 9 1 14 9 6 9 25 1 82 -7
41 -11 92 -9 114 1 21 -2 50 -6 63 -7 19 -5 23 6 18 13 -4 13 2 4 41 -5 26
-15 50 -20 54 -7 5 -7 11 2 20 13 13 17 94 4 102 -5 3 -7 19 -4 36 3 19 0 30
-8 30 -10 0 -10 3 0 15 7 8 9 15 4 15 -5 0 -2 5 7 10 14 8 15 17 9 47 -5 20
-7 41 -4 45 3 4 0 8 -5 8 -10 0 -7 86 5 119 2 7 -1 20 -7 27 -9 11 -8 14 1 14
12 0 11 18 -4 128 -2 18 -9 38 -14 45 -13 17 -20 64 -11 78 4 7 3 22 -1 35 -6
16 -5 24 5 27 10 5 11 15 4 48 -6 23 -7 49 -3 58 11 24 13 81 3 87 -5 3 -6 13
-2 22 10 21 8 110 -5 267 -8 100 -7 125 5 153 11 23 12 36 5 45 -12 14 -13
115 -1 123 4 2 2 16 -6 30 -14 27 -10 52 11 69 6 6 14 29 18 53 6 38 4 43 -19
54 -39 18 -30 37 30 63 l40 18 -45 12 c-25 7 -58 16 -73 19 -16 4 -27 12 -24
19 2 6 -7 20 -20 30 l-23 18 22 29 c39 53 131 72 228 47z m624 -17 c26 -9 27
-40 2 -40 -6 0 -16 -8 -23 -19 -14 -23 -64 -35 -56 -13 5 12 2 12 -16 3 -24
-13 -41 -7 -41 15 0 8 -6 14 -12 14 -7 0 0 11 16 25 31 27 84 33 130 15z
m-7714 -41 c0 -10 -4 -19 -10 -19 -5 0 -10 4 -10 9 0 5 -3 17 -6 25 -5 12 -2
15 10 10 9 -3 16 -15 16 -25z m5522 6 c3 -14 1 -28 -5 -32 -6 -4 -3 -11 8 -19
16 -12 16 -14 -2 -41 -21 -30 -22 -61 -4 -106 6 -16 8 -34 4 -40 -15 -24 -36
-173 -32 -227 1 -8 2 -50 3 -92 2 -57 7 -82 20 -97 15 -17 17 -37 13 -178 -3
-87 -1 -182 2 -211 4 -29 5 -55 1 -57 -8 -5 -7 -27 4 -70 3 -17 9 -125 11
-240 3 -116 6 -214 6 -220 5 -54 -18 -473 -27 -486 -2 -4 0 -10 4 -13 11 -7 3
-107 -10 -123 -5 -6 -5 -14 -1 -16 13 -8 9 -53 -6 -71 -10 -12 -9 -20 5 -42
17 -25 17 -27 0 -40 -16 -11 -17 -19 -8 -54 8 -33 7 -40 -5 -40 -9 0 -12 -6
-9 -18 4 -12 -1 -26 -14 -37 -11 -10 -20 -29 -20 -41 0 -14 -10 -30 -25 -40
-30 -19 -37 -15 -37 20 0 14 -7 31 -14 37 -19 16 -18 36 4 48 15 10 16 12 1
23 -15 13 -32 72 -43 151 -4 28 -1 37 10 37 11 0 13 6 8 23 -3 12 -10 27 -14
32 -5 6 -7 49 -7 98 1 50 -2 89 -8 91 -6 3 -3 9 5 15 13 10 13 12 0 21 -11 7
-11 10 -2 10 7 0 11 4 7 9 -13 23 -21 103 -15 148 5 26 4 69 0 94 -9 46 -10
67 -11 329 0 79 -4 147 -8 150 -5 3 -7 19 -5 35 6 48 4 596 -2 607 -10 16 -4
160 7 174 6 7 9 38 7 69 -2 37 1 56 9 59 10 4 9 14 -1 43 -19 53 -9 102 25
131 34 28 36 38 8 47 -28 9 -79 61 -84 87 -3 11 -12 29 -21 39 -10 11 -12 19
-6 19 7 0 11 3 11 8 -1 4 -1 10 0 15 0 4 59 7 130 7 l129 0 4 -25z m2167 -79
c-11 -9 -69 -15 -64 -6 3 6 20 10 37 10 17 0 29 -2 27 -4z m-7768 -269 c-18
-18 -38 8 -21 28 12 15 14 15 23 0 6 -11 5 -21 -2 -28z m795 2 c12 -14 20 -43
25 -92 9 -99 -5 -380 -20 -385 -6 -2 -11 -14 -11 -27 0 -20 -26 -42 -36 -32
-14 14 -24 139 -24 302 0 240 14 291 66 234z m7004 11 c0 -5 -4 -10 -10 -10
-5 0 -10 5 -10 10 0 6 5 10 10 10 6 0 10 -4 10 -10z m-7269 -84 c5 -237 -1
-439 -13 -451 -2 -2 -10 0 -18 5 -13 8 -15 47 -15 232 0 123 4 241 9 263 7 37
9 39 22 20 8 -10 14 -42 15 -69z m-1478 -33 c12 -196 8 -416 -8 -437 -8 -11
-16 -18 -16 -15 -10 32 -12 421 -3 499 4 33 10 60 14 60 4 0 10 -48 13 -107z
m1991 98 c3 -5 6 -100 7 -212 1 -196 -7 -259 -32 -259 -15 0 -27 107 -25 220
5 273 4 260 25 260 11 0 22 -4 25 -9z m303 -3 c9 -15 14 -320 6 -395 -6 -55
-19 -67 -44 -37 -11 13 -13 62 -12 220 1 112 4 208 8 214 9 14 32 13 42 -2z
m7167 -4 c9 -8 14 -19 11 -24 -3 -5 14 -27 37 -50 24 -22 44 -51 45 -63 1 -12
11 -44 22 -70 14 -32 18 -54 12 -65 -5 -9 -14 -64 -21 -122 -7 -58 -16 -110
-21 -115 -4 -6 -4 -29 1 -50 9 -42 7 -112 -4 -122 -3 -3 -3 -17 0 -29 5 -19 2
-24 -12 -25 -17 0 -16 -1 2 -9 18 -7 21 -15 18 -51 -2 -30 2 -46 13 -54 11 -8
15 -29 15 -71 0 -32 5 -62 10 -65 7 -4 6 -13 0 -26 -6 -10 -8 -39 -5 -63 2
-25 5 -52 5 -60 1 -8 6 -18 12 -22 7 -5 8 -11 1 -15 -15 -12 -14 -62 2 -56 7
3 13 0 13 -6 0 -6 -4 -11 -10 -11 -14 0 -12 -54 2 -68 7 -7 8 -12 4 -12 -5 0
-3 -7 5 -16 10 -13 10 -17 -2 -26 -12 -8 -12 -10 0 -15 11 -4 11 -7 0 -13 -9
-6 -10 -12 -2 -22 5 -7 13 -21 17 -32 5 -14 2 -17 -9 -12 -15 6 -17 -17 -2
-41 4 -6 2 -15 -3 -18 -7 -5 -5 -12 7 -21 17 -13 17 -13 -1 -14 -15 0 -16 -3
-6 -15 10 -12 10 -15 -1 -15 -11 0 -12 -2 -1 -9 9 -5 11 -17 6 -36 -5 -20 -4
-26 5 -21 6 4 11 2 11 -3 0 -6 -4 -11 -9 -11 -5 0 -7 -12 -5 -27 12 -74 12
-168 1 -176 -9 -7 -9 -10 1 -14 6 -2 10 -8 7 -13 -3 -5 -1 -20 5 -35 7 -19 7
-24 -1 -19 -8 4 -9 0 -4 -15 5 -16 2 -21 -11 -21 -12 0 -14 -4 -6 -12 5 -7 13
-34 16 -60 6 -40 5 -48 -8 -48 -18 0 -19 -4 -10 -49 4 -17 13 -31 20 -31 21 0
17 -15 -12 -49 -26 -31 -26 -71 -1 -71 7 -1 1 -7 -12 -14 -23 -13 -40 -66 -20
-66 5 0 9 -6 9 -14 0 -8 6 -17 13 -19 23 -10 -16 -27 -60 -27 -48 0 -49 0 -28
40 15 29 14 31 -15 61 -26 27 -30 40 -30 85 0 29 -4 55 -8 58 -10 6 -3 66 10
83 6 8 2 13 -11 18 -24 7 -28 23 -8 31 13 5 13 51 -1 84 -8 20 -11 46 -14 102
-2 27 -7 48 -12 48 -5 0 -3 6 3 14 14 16 1 51 -21 59 -10 3 -10 7 1 20 11 14
11 17 0 17 -11 1 -10 3 2 13 9 7 14 18 11 25 -2 7 1 18 6 25 12 15 -2 112 -19
133 -9 11 -9 17 0 28 10 11 8 17 -6 25 -16 10 -16 12 -3 23 19 17 14 76 -8
101 -16 18 -15 20 5 37 20 16 21 18 5 22 -15 4 -18 17 -17 89 0 46 4 90 8 97
10 15 0 32 -19 32 -26 0 -14 41 16 53 12 4 11 6 -2 6 -14 1 -17 8 -13 34 12
79 14 107 5 102 -5 -3 -11 -1 -15 5 -3 5 2 10 12 10 17 1 17 1 -1 15 -16 12
-17 16 -3 35 14 19 13 25 -1 51 -11 19 -13 32 -7 37 24 18 33 48 19 67 -8 10
-12 27 -9 36 3 10 1 20 -5 24 -6 3 -8 11 -5 16 4 5 2 9 -4 9 -7 0 -7 8 1 25 8
18 8 28 -1 39 -8 10 -10 48 -6 132 7 137 7 126 5 225 -1 42 3 85 8 95 6 10 13
31 17 47 4 20 11 27 29 27 14 0 32 -7 40 -16z m-5103 -3 c-9 -6 -10 -11 -3
-15 13 -8 10 -134 -3 -144 -12 -8 -14 -72 -3 -72 11 0 9 -52 -2 -70 -20 -30
-29 13 -28 140 1 136 8 170 35 170 14 0 15 -2 4 -9z m4398 -25 c16 -19 3 -46
-23 -46 -26 1 -79 29 -55 30 9 0 19 7 23 15 7 19 40 20 55 1z m-7800 -233 c-1
-150 -5 -206 -15 -213 -16 -14 -24 -1 -24 42 0 18 -2 110 -5 203 -4 150 -2
171 12 182 14 10 18 10 25 0 5 -6 8 -103 7 -214z m291 213 c0 -3 -4 -8 -10
-11 -5 -3 -10 -1 -10 4 0 6 5 11 10 11 6 0 10 -2 10 -4z m113 -177 c4 -98 3
-158 -4 -171 -19 -35 -33 0 -29 72 4 56 3 90 -3 159 -5 49 6 91 24 91 3 0 9
-68 12 -151z m-486 -17 l3 -153 -23 3 c-22 3 -22 6 -22 156 -1 148 0 153 20
150 19 -3 20 -10 22 -156z m380 -15 c-2 -136 -12 -182 -29 -136 -13 33 -7 280
6 295 20 21 26 -22 23 -159z m7538 133 c32 -30 39 -79 18 -121 -9 -19 -17 -49
-17 -66 0 -18 -4 -33 -8 -33 -4 0 -8 -31 -8 -70 0 -38 3 -70 8 -70 4 0 9 -27
10 -59 3 -49 0 -63 -17 -80 l-20 -20 21 -7 22 -7 -24 -19 c-22 -18 -23 -21 -9
-31 22 -17 29 -64 12 -79 -13 -10 -10 -16 19 -40 l33 -29 -22 -15 c-20 -15
-21 -17 -6 -32 13 -13 13 -17 2 -21 -22 -9 -17 -31 11 -46 19 -11 21 -14 8
-15 -19 0 -26 -20 -7 -20 7 0 9 -11 6 -26 -3 -16 0 -28 9 -31 13 -5 14 -28 2
-48 -3 -5 -2 -32 2 -60 4 -27 6 -53 3 -57 -2 -4 1 -17 7 -29 9 -16 8 -24 -5
-39 -12 -13 -13 -20 -5 -25 7 -4 9 -18 6 -30 -3 -13 -1 -27 4 -30 6 -4 8 -10
6 -14 -3 -4 -1 -24 3 -44 5 -20 6 -38 4 -41 -6 -5 -5 -128 1 -230 2 -42 9 -72
17 -77 10 -6 9 -10 -6 -15 -11 -4 -23 -12 -26 -17 -4 -5 -17 -10 -30 -11 -20
-1 -25 -7 -28 -36 -3 -34 -4 -33 -16 20 -9 38 -10 59 -3 67 7 9 3 15 -17 23
-26 10 -27 11 -10 36 13 20 14 28 4 40 -6 8 -8 14 -5 14 4 0 0 8 -10 17 -11
11 -13 18 -5 21 14 5 15 98 1 107 -17 11 -11 52 10 66 20 14 20 14 -5 42 -14
15 -21 27 -15 27 14 0 13 47 -2 53 -10 3 -10 9 0 27 8 13 10 25 5 29 -15 9
-24 41 -12 41 6 0 8 4 5 8 -3 5 -6 38 -7 75 -1 37 -6 67 -12 67 -5 0 -4 7 3
15 6 8 10 20 8 27 -3 7 2 18 11 25 14 11 14 12 -1 13 -19 0 -26 20 -8 20 6 0
10 9 10 19 0 11 6 22 13 24 7 3 5 6 -5 6 -13 1 -18 10 -19 34 0 17 -2 44 -4
59 -2 18 2 31 13 38 9 5 13 10 7 10 -5 0 -11 18 -12 40 -2 34 1 42 20 49 21 9
21 9 -6 16 -15 4 -26 10 -23 13 3 3 1 11 -5 19 -9 10 -8 13 5 13 10 0 14 5 11
10 -3 6 -2 10 4 10 6 0 5 13 -4 33 -10 24 -11 45 -3 85 6 38 6 57 -2 67 -11
14 -7 281 4 292 3 3 -2 12 -10 20 -39 39 50 42 91 3z m-10696 -9 c6 -10 12
-59 15 -107 5 -108 -7 -380 -17 -391 -4 -4 -14 0 -22 8 -11 11 -15 61 -19 218
-6 243 9 337 43 272z m-693 -32 c12 -21 6 -440 -7 -456 -8 -9 -16 -10 -22 -4
-11 11 -21 388 -12 439 6 32 27 43 41 21z m13764 -41 c16 -26 19 -42 14 -73
-4 -22 -7 -61 -6 -87 1 -33 -5 -54 -20 -73 -11 -15 -20 -36 -20 -49 0 -27 -47
-54 -60 -33 -15 23 -8 34 25 42 33 7 32 9 -16 20 -22 4 -27 10 -22 23 4 9 7
68 6 130 -2 109 -2 112 21 121 40 17 58 12 78 -21z m-12352 -70 c0 -78 -8
-152 -15 -144 -7 7 -13 198 -7 208 13 20 22 -7 22 -64z m2759 -50 c-3 -8 -6
-5 -6 6 -1 11 2 17 5 13 3 -3 4 -12 1 -19z m3249 -95 c4 -13 2 -29 -5 -36 -14
-14 -17 -10 -24 35 -4 29 -3 36 9 31 8 -3 17 -16 20 -30z m339 17 c-3 -5 -11
-10 -16 -10 -6 0 -7 5 -4 10 3 6 11 10 16 10 6 0 7 -4 4 -10z m-6353 -75 c-2
-14 -8 -25 -13 -25 -10 0 -12 43 -3 53 13 12 21 -3 16 -28z m2548 11 c0 -8 -4
-18 -10 -21 -5 -3 -10 3 -10 14 0 12 5 21 10 21 6 0 10 -6 10 -14z m3470 -64
c0 -26 5 -53 10 -58 8 -8 7 -20 -2 -39 -10 -23 -10 -29 0 -33 7 -2 10 -8 6
-13 -7 -12 -51 -12 -59 1 -8 13 -6 125 4 183 0 4 10 7 21 7 17 0 20 -7 20 -48z
m6302 -372 c10 0 18 -4 18 -10 0 -18 -26 -11 -46 13 -10 12 -12 16 -4 10 8 -7
22 -13 32 -13z m-8122 -60 c0 -5 -4 -10 -10 -10 -5 0 -10 5 -10 10 0 6 5 10
10 10 6 0 10 -4 10 -10z m8090 0 c0 -5 -4 -10 -10 -10 -5 0 -10 5 -10 10 0 6
5 10 10 10 6 0 10 -4 10 -10z m-12675 -63 c7 -66 2 -164 -10 -175 -15 -15 -32
31 -33 94 -2 65 14 144 29 144 4 0 10 -29 14 -63z m12738 40 c7 -19 -25 -36
-56 -30 -40 8 -42 21 -5 32 46 13 55 13 61 -2z m-23 -61 c6 -8 18 -12 25 -10
7 3 18 -3 24 -14 9 -17 8 -21 -6 -24 -13 -2 -8 -8 16 -20 31 -14 32 -16 13
-22 -18 -6 -20 -10 -10 -31 6 -14 14 -22 19 -20 4 3 10 1 14 -5 3 -5 -1 -10
-9 -10 -23 0 -28 -17 -11 -34 12 -11 13 -21 6 -33 -7 -13 -5 -23 6 -35 17 -19
5 -51 -22 -62 -12 -4 -9 -11 16 -35 30 -29 30 -31 18 -68 -7 -21 -16 -42 -20
-47 -12 -15 1 -34 21 -29 10 3 21 0 25 -7 4 -7 -1 -14 -14 -17 -27 -7 -27 -28
-1 -46 18 -12 19 -16 6 -27 -13 -10 -13 -15 6 -40 15 -21 18 -33 11 -42 -16
-18 -19 -50 -8 -68 5 -8 10 -19 11 -25 1 -5 6 -19 10 -29 5 -14 4 -17 -4 -12
-19 11 -14 -5 6 -20 16 -12 15 -13 -6 -14 -21 0 -22 -1 -8 -16 9 -8 17 -20 17
-25 11 -77 11 -95 5 -148 -4 -28 -2 -48 5 -52 7 -4 13 -31 14 -60 1 -30 4 -58
5 -64 4 -13 -11 -48 -23 -56 -5 -4 -6 -13 -1 -20 5 -8 9 -21 11 -29 1 -8 7
-16 13 -18 7 -3 7 -9 -2 -20 -10 -12 -10 -16 -1 -19 10 -4 9 -10 -1 -26 -17
-26 -29 -147 -15 -147 5 0 9 -5 9 -11 0 -6 -9 -9 -19 -6 -11 3 -22 -1 -25 -8
-5 -15 12 -35 31 -35 7 0 -7 -21 -31 -47 l-44 -46 -35 16 c-31 15 -35 21 -33
50 5 49 5 50 21 43 9 -3 15 0 15 9 0 8 -7 15 -15 15 -18 0 -34 28 -28 51 3 11
1 19 -4 19 -6 0 -7 19 -3 48 5 26 5 52 2 57 -4 6 -7 44 -8 86 -1 41 -4 84 -8
96 -4 14 1 28 19 45 25 25 25 26 4 31 -14 4 -20 11 -16 21 3 8 1 17 -6 20 -7
2 -4 5 6 5 20 1 24 21 3 21 -13 0 -26 20 -26 41 0 5 10 9 23 9 l22 0 -24 13
c-28 14 -39 79 -16 100 11 10 11 15 -2 30 -10 10 -11 17 -5 17 18 0 33 37 24
57 -5 10 -16 33 -25 51 -16 32 -16 33 4 41 20 7 21 8 3 25 -14 15 -15 22 -6
37 10 16 10 21 -3 25 -13 5 -13 9 -3 21 10 12 9 18 -7 29 -10 8 -15 14 -11 14
5 0 3 7 -4 15 -11 13 -10 18 8 31 17 12 20 21 15 47 -3 18 -10 40 -15 50 -5
10 -5 17 0 17 10 0 7 78 -2 88 -3 3 2 11 12 18 16 13 16 13 -1 14 -10 0 -20 7
-23 15 -3 8 -16 17 -27 21 -20 6 -19 8 13 20 32 12 33 13 13 20 -27 8 -28 12
-7 42 8 12 10 22 5 22 -6 0 -11 11 -11 25 0 14 5 25 11 25 6 0 8 9 4 20 -4 11
-2 20 4 20 6 0 11 6 11 14 0 8 6 17 13 19 9 4 8 8 -3 16 -13 9 -11 11 6 11 12
0 27 -6 34 -14z m-7216 -58 c-3 -5 -1 -15 6 -23 8 -10 8 -19 -2 -37 -7 -13
-14 -25 -15 -26 -1 -2 -11 -1 -22 3 -32 10 -38 61 -10 91 17 18 25 21 36 13 7
-6 10 -15 7 -21z m-1789 -218 c3 -5 1 -10 -4 -10 -6 0 -11 5 -11 10 0 6 2 10
4 10 3 0 8 -4 11 -10z m2531 -124 c-4 -17 -7 -37 -8 -43 -2 -17 -16 -16 -35 2
-8 8 -19 13 -24 10 -5 -4 -9 -2 -9 4 0 5 5 11 11 13 5 2 12 12 14 23 2 11 4
21 4 21 1 1 13 2 27 2 24 0 25 -3 20 -32z m4157 -468 c12 -9 18 -30 19 -66 1
-30 6 -56 11 -59 4 -2 3 -11 -4 -19 -15 -18 -59 -17 -83 1 -11 8 -14 15 -8 15
7 0 12 11 12 24 0 18 7 25 33 31 30 6 31 7 10 15 -17 7 -23 18 -23 40 0 33 7
37 33 18z m27 -213 c0 -11 -7 -14 -25 -9 -24 6 -25 4 -19 -20 8 -33 -1 -33
-22 -1 -20 31 -11 45 32 45 24 0 34 -5 34 -15z m-55 -75 c-3 -5 -10 -10 -16
-10 -5 0 -9 5 -9 10 0 6 7 10 16 10 8 0 12 -4 9 -10z m50 -65 c0 -13 -8 -21
-22 -23 -13 -2 -23 1 -23 6 0 6 -3 18 -6 27 -6 13 -1 16 22 13 21 -2 29 -8 29
-23z m-1278 -37 c-2 -7 -12 -12 -21 -12 -10 1 -16 -6 -16 -20 0 -17 2 -18 10
-6 6 9 10 10 10 3 0 -6 -5 -15 -10 -18 -6 -4 -7 -12 -4 -18 5 -9 3 -9 -6 0 -7
7 -14 21 -15 32 -1 11 -7 26 -14 35 -12 14 -9 16 29 16 29 0 40 -4 37 -12z
m-577 -28 c0 -5 -4 -10 -9 -10 -5 0 -16 -3 -24 -6 -8 -3 -17 2 -20 10 -5 12 1
16 23 16 17 0 30 -4 30 -10z m1135 -300 c3 -5 1 -10 -4 -10 -6 0 -11 5 -11 10
0 6 2 10 4 10 3 0 8 -4 11 -10z m-2650 -150 c3 -5 2 -10 -4 -10 -5 0 -13 5
-16 10 -3 6 -2 10 4 10 5 0 13 -4 16 -10z m5779 -9 c3 -5 -1 -11 -9 -15 -9 -3
-15 0 -15 9 0 16 16 20 24 6z"/>
<path d="M9693 8807 c4 -12 8 -13 94 -16 l52 -1 3 -72 c4 -92 23 -89 23 3 0
65 0 66 27 66 16 0 28 -4 28 -9 0 -5 7 -5 16 0 9 5 25 7 35 5 16 -5 19 -15 19
-74 0 -39 4 -69 10 -69 6 0 10 28 10 64 0 73 5 78 78 72 28 -2 42 1 42 9 0 8
-16 11 -46 10 -25 0 -48 3 -50 7 -3 5 -35 8 -72 7 -37 0 -113 2 -170 5 -77 3
-102 2 -99 -7z"/>
<path d="M9660 8615 c0 -9 20 -15 63 -20 103 -10 441 -24 450 -18 20 12 -15
24 -79 28 -38 3 -103 7 -144 10 -208 14 -290 14 -290 0z"/>
<path d="M10163 8315 c0 -27 2 -38 4 -22 2 15 2 37 0 50 -2 12 -4 0 -4 -28z"/>
<path d="M9675 7870 c-3 -5 -2 -10 4 -10 5 0 13 5 16 10 3 6 2 10 -4 10 -5 0
-13 -4 -16 -10z"/>
<path d="M9845 7800 c4 -6 11 -8 16 -5 14 9 11 15 -7 15 -8 0 -12 -5 -9 -10z"/>
<path d="M9768 7593 c6 -2 18 -2 25 0 6 3 1 5 -13 5 -14 0 -19 -2 -12 -5z"/>
<path d="M9684 7050 c0 -69 1 -97 3 -62 2 34 2 90 0 125 -2 34 -3 6 -3 -63z"/>
<path d="M9720 6786 c0 -9 7 -16 16 -16 17 0 14 22 -4 28 -7 2 -12 -3 -12 -12z"/>
<path d="M4558 6533 c-8 -10 -13 -62 -15 -149 -4 -156 -12 -147 122 -142 l80
3 5 125 c3 69 4 130 2 136 -9 34 -170 56 -194 27z"/>
<path d="M4472 6340 c0 -19 2 -27 5 -17 2 9 2 25 0 35 -3 9 -5 1 -5 -18z"/>
<path d="M4470 6261 c0 -5 9 -7 20 -4 11 3 20 7 20 9 0 2 -9 4 -20 4 -11 0
-20 -4 -20 -9z"/>
<path d="M4778 6253 c6 -2 18 -2 25 0 6 3 1 5 -13 5 -14 0 -19 -2 -12 -5z"/>
<path d="M4566 6074 c-7 -17 -8 -234 -2 -234 2 0 11 -3 20 -6 11 -4 16 0 16
12 0 11 4 25 8 31 10 17 54 23 70 11 8 -8 12 -6 12 5 0 9 8 20 17 25 26 15 24
137 -3 157 -26 20 -52 19 -57 -2 -4 -17 -5 -17 -6 0 -1 23 -66 24 -75 1z"/>
<path d="M7552 6470 c0 -14 2 -19 5 -12 2 6 2 18 0 25 -3 6 -5 1 -5 -13z"/>
<path d="M7330 6430 c0 -11 2 -20 4 -20 2 0 6 9 9 20 3 11 1 20 -4 20 -5 0 -9
-9 -9 -20z"/>
<path d="M7011 6414 c0 -11 3 -14 6 -6 3 7 2 16 -1 19 -3 4 -6 -2 -5 -13z"/>
<path d="M6400 6334 c-26 -25 -30 -34 -18 -34 25 0 75 46 63 58 -7 7 -22 -2
-45 -24z"/>
<path d="M6236 6281 c-4 -6 0 -11 10 -11 16 0 12 -14 -4 -15 -20 -2 -52 -18
-52 -26 0 -13 22 -11 63 6 41 17 56 35 30 35 -11 0 -24 5 -30 11 -8 8 -13 8
-17 0z"/>
<path d="M6090 6203 c-14 -3 -29 -9 -35 -15 -7 -7 -1 -8 20 -4 17 4 38 8 47
10 10 1 21 5 24 9 8 7 -14 7 -56 0z"/>
<path d="M6583 5023 c15 -2 39 -2 55 0 15 2 2 4 -28 4 -30 0 -43 -2 -27 -4z"/>
<path d="M6803 5023 c15 -2 39 -2 55 0 15 2 2 4 -28 4 -30 0 -43 -2 -27 -4z"/>
<path d="M6618 4773 c6 -2 18 -2 25 0 6 3 1 5 -13 5 -14 0 -19 -2 -12 -5z"/>
<path d="M6690 4776 c0 -2 7 -6 15 -10 8 -3 15 -1 15 4 0 6 -7 10 -15 10 -8 0
-15 -2 -15 -4z"/>
<path d="M6143 4723 c15 -2 37 -2 50 0 12 2 0 4 -28 4 -27 0 -38 -2 -22 -4z"/>
<path d="M4181 4581 c-20 -13 3 -23 36 -15 25 7 25 8 8 15 -26 10 -28 10 -44
0z"/>
<path d="M5854 4559 c-3 -6 -1 -15 6 -19 8 -5 11 -27 9 -64 -3 -33 0 -56 6
-56 6 0 1 -7 -9 -15 -18 -14 -18 -16 -3 -33 9 -10 17 -24 17 -30 0 -7 6 -12
13 -12 9 0 12 10 9 33 -7 52 -2 128 9 149 15 28 2 58 -26 58 -13 0 -27 -5 -31
-11z"/>
<path d="M6364 4555 c-11 -8 -14 -15 -6 -15 6 0 12 -7 12 -15 0 -17 16 -20 25
-5 3 6 1 10 -5 10 -7 0 -9 8 -5 20 8 24 5 25 -21 5z"/>
<path d="M6040 4550 c0 -5 5 -10 10 -10 6 0 9 -4 8 -9 -2 -5 2 -11 7 -12 6 -2
11 6 13 19 3 17 -2 22 -17 22 -12 0 -21 -4 -21 -10z"/>
<path d="M6360 4466 c0 -8 4 -17 9 -20 10 -7 23 19 14 28 -11 11 -23 6 -23 -8z"/>
<path d="M6178 4392 c-22 -4 -23 -25 -3 -42 8 -7 15 -24 15 -39 l1 -26 14 25
c8 14 14 32 14 40 0 23 -22 46 -41 42z"/>
<path d="M6370 4350 c0 -5 5 -10 11 -10 5 0 7 5 4 10 -3 6 -8 10 -11 10 -2 0
-4 -4 -4 -10z"/>
<path d="M4635 4350 c-3 -5 1 -10 9 -10 9 0 16 5 16 10 0 6 -4 10 -9 10 -6 0
-13 -4 -16 -10z"/>
<path d="M5240 4570 c0 -5 5 -10 10 -10 6 0 10 5 10 10 0 6 -4 10 -10 10 -5 0
-10 -4 -10 -10z"/>
<path d="M5131 4528 c0 -16 2 -18 6 -8 3 8 11 18 17 22 7 5 4 8 -6 8 -12 0
-18 -7 -17 -22z"/>
<path d="M5240 4534 c0 -8 5 -12 10 -9 6 3 10 10 10 16 0 5 -4 9 -10 9 -5 0
-10 -7 -10 -16z"/>
<path d="M5130 4440 c-12 -8 -10 -10 8 -10 13 0 20 4 17 10 -7 12 -6 12 -25 0z"/>
<path d="M5230 4425 c0 -8 7 -15 15 -15 8 0 15 7 15 15 0 8 -7 15 -15 15 -8 0
-15 -7 -15 -15z"/>
<path d="M5252 4240 c0 -14 2 -19 5 -12 2 6 2 18 0 25 -3 6 -5 1 -5 -13z"/>
<path d="M7837 4204 c-3 -5 -7 -31 -8 -59 -3 -37 -1 -50 10 -50 8 0 15 15 17
43 4 42 -8 84 -19 66z"/>
<path d="M9040 3945 c0 -14 -4 -25 -9 -25 -4 0 -9 -38 -10 -85 -1 -79 8 -110
25 -83 12 20 31 159 22 164 -4 3 -8 16 -8 30 0 13 -4 24 -10 24 -5 0 -10 -11
-10 -25z"/>
<path d="M9030 3700 c0 -5 7 -10 16 -10 8 0 12 5 9 10 -3 6 -10 10 -16 10 -5
0 -9 -4 -9 -10z"/>
<path d="M9292 1341 c-11 -6 -9 -9 6 -13 15 -4 19 -2 15 8 -6 16 -4 16 -21 5z"/>
<path d="M9320 1300 c0 -5 4 -10 9 -10 6 0 13 5 16 10 3 6 -1 10 -9 10 -9 0
-16 -4 -16 -10z"/>
<path d="M8387 3380 c-10 -70 -6 -98 13 -93 20 5 33 40 19 49 -6 3 -7 13 -4
23 3 9 -1 26 -9 36 -13 19 -14 18 -19 -15z"/>
<path d="M11327 1769 c7 -7 15 -10 18 -7 3 3 -2 9 -12 12 -14 6 -15 5 -6 -5z"/>
<path d="M13460 1870 c0 -5 5 -10 10 -10 6 0 10 5 10 10 0 6 -4 10 -10 10 -5
0 -10 -4 -10 -10z"/>
</g>
</svg>
